<svg xmlns="http://www.w3.org/2000/svg" width="128" height="128" viewBox="0 0 128 128"><ellipse cx="64.0" cy="89.0" rx="45.0" ry="18.0" fill="#000000" opacity="0.22"/><path d="M 111.2 71.5 C 111.3 82.4, 105.0 96.1, 97.1 104.6 C 89.2 113.1, 76.0 121.3, 64.0 122.3 C 52.0 123.2, 33.1 118.6, 25.3 110.2 C 17.6 101.7, 16.9 83.9, 17.4 71.5 C 17.8 59.1, 20.4 43.5, 28.2 35.7 C 35.9 27.8, 52.7 23.7, 64.0 24.3 C 75.3 24.9, 88.3 31.5, 96.1 39.4 C 104.0 47.2, 111.0 60.6, 111.2 71.5 Z" fill="#3a2154" stroke="#16131f" stroke-width="3" stroke-linejoin="round"/><path d="M 52.9 60.0 L 64.7 20.0 L 73.3 60.0 Z" fill="#6a32b0" stroke="#16131f" stroke-width="2" stroke-linejoin="round"/><path d="M 63.1 60.0 L 64.7 20.0 L 73.3 60.0 Z" fill="#c79bff" opacity="0.85"/><path d="M 52.9 60.0 L 64.7 20.0 L 63.1 60.0 Z" fill="#3a2154" opacity="0.9"/><path d="M 66.6 63.1 L 75.8 16.0 L 88.3 63.1 Z" fill="#6a32b0" stroke="#16131f" stroke-width="2" stroke-linejoin="round"/><path d="M 77.5 63.1 L 75.8 16.0 L 88.3 63.1 Z" fill="#c79bff" opacity="0.85"/><path d="M 66.6 63.1 L 75.8 16.0 L 77.5 63.1 Z" fill="#3a2154" opacity="0.9"/><path d="M 67.2 65.2 L 76.3 18.1 L 90.0 65.2 Z" fill="#6a32b0" stroke="#16131f" stroke-width="2" stroke-linejoin="round"/><path d="M 78.6 65.2 L 76.3 18.1 L 90.0 65.2 Z" fill="#c79bff" opacity="0.85"/><path d="M 67.2 65.2 L 76.3 18.1 L 78.6 65.2 Z" fill="#3a2154" opacity="0.9"/><path d="M 34.7 75.3 L 45.1 39.0 L 53.4 75.3 Z" fill="#6a32b0" stroke="#16131f" stroke-width="2" stroke-linejoin="round"/><path d="M 44.1 75.3 L 45.1 39.0 L 53.4 75.3 Z" fill="#c79bff" opacity="0.85"/><path d="M 34.7 75.3 L 45.1 39.0 L 44.1 75.3 Z" fill="#3a2154" opacity="0.9"/><circle cx="61.3" cy="61.9" r="1.3" fill="#e9c6ff" opacity="0.9"/><circle cx="55.4" cy="59.9" r="1.3" fill="#e9c6ff" opacity="0.9"/><circle cx="58.3" cy="36.1" r="1.3" fill="#e9c6ff" opacity="0.9"/><circle cx="79.8" cy="41.0" r="1.3" fill="#e9c6ff" opacity="0.9"/></svg>