<svg xmlns="http://www.w3.org/2000/svg" width="128" height="128" viewBox="0 0 128 128"><ellipse cx="64.0" cy="89.0" rx="45.0" ry="18.0" fill="#000000" opacity="0.22"/><path d="M 113.0 71.5 C 113.1 83.1, 107.3 97.7, 99.2 106.7 C 91.0 115.7, 76.1 125.2, 64.0 125.6 C 51.9 126.0, 34.1 118.1, 26.4 109.1 C 18.7 100.0, 17.2 83.5, 17.8 71.5 C 18.4 59.5, 22.1 45.2, 29.8 37.3 C 37.5 29.5, 52.6 24.4, 64.0 24.3 C 75.4 24.3, 90.2 29.3, 98.4 37.1 C 106.5 45.0, 112.8 59.9, 113.0 71.5 Z" fill="#3a2154" stroke="#16131f" stroke-width="3" stroke-linejoin="round"/><path d="M 33.6 59.1 L 45.2 13.8 L 55.5 59.1 Z" fill="#6a32b0" stroke="#16131f" stroke-width="2" stroke-linejoin="round"/><path d="M 44.5 59.1 L 45.2 13.8 L 55.5 59.1 Z" fill="#c79bff" opacity="0.85"/><path d="M 33.6 59.1 L 45.2 13.8 L 44.5 59.1 Z" fill="#3a2154" opacity="0.9"/><path d="M 46.5 59.4 L 52.4 10.6 L 62.7 59.4 Z" fill="#6a32b0" stroke="#16131f" stroke-width="2" stroke-linejoin="round"/><path d="M 54.6 59.4 L 52.4 10.6 L 62.7 59.4 Z" fill="#c79bff" opacity="0.85"/><path d="M 46.5 59.4 L 52.4 10.6 L 54.6 59.4 Z" fill="#3a2154" opacity="0.9"/><path d="M 53.3 70.6 L 62.6 33.7 L 73.8 70.6 Z" fill="#6a32b0" stroke="#16131f" stroke-width="2" stroke-linejoin="round"/><path d="M 63.5 70.6 L 62.6 33.7 L 73.8 70.6 Z" fill="#c79bff" opacity="0.85"/><path d="M 53.3 70.6 L 62.6 33.7 L 63.5 70.6 Z" fill="#3a2154" opacity="0.9"/><path d="M 66.9 75.2 L 81.4 38.6 L 92.7 75.2 Z" fill="#6a32b0" stroke="#16131f" stroke-width="2" stroke-linejoin="round"/><path d="M 79.8 75.2 L 81.4 38.6 L 92.7 75.2 Z" fill="#c79bff" opacity="0.85"/><path d="M 66.9 75.2 L 81.4 38.6 L 79.8 75.2 Z" fill="#3a2154" opacity="0.9"/><path d="M 49.6 76.4 L 62.8 31.1 L 72.7 76.4 Z" fill="#6a32b0" stroke="#16131f" stroke-width="2" stroke-linejoin="round"/><path d="M 61.2 76.4 L 62.8 31.1 L 72.7 76.4 Z" fill="#c79bff" opacity="0.85"/><path d="M 49.6 76.4 L 62.8 31.1 L 61.2 76.4 Z" fill="#3a2154" opacity="0.9"/><circle cx="63.2" cy="38.2" r="1.3" fill="#e9c6ff" opacity="0.9"/><circle cx="58.5" cy="55.3" r="1.3" fill="#e9c6ff" opacity="0.9"/><circle cx="57.9" cy="58.2" r="1.3" fill="#e9c6ff" opacity="0.9"/><circle cx="55.5" cy="50.1" r="1.3" fill="#e9c6ff" opacity="0.9"/></svg>