<svg xmlns="http://www.w3.org/2000/svg" width="128" height="128" viewBox="0 0 128 128"><ellipse cx="64.0" cy="89.0" rx="45.0" ry="18.0" fill="#000000" opacity="0.22"/><path d="M 117.4 71.5 C 117.3 83.3, 107.9 98.4, 99.0 106.5 C 90.1 114.6, 76.0 119.8, 64.0 120.2 C 52.0 120.5, 35.9 116.5, 27.1 108.4 C 18.3 100.2, 11.5 84.2, 11.2 71.5 C 10.8 58.8, 16.1 40.2, 24.9 32.4 C 33.7 24.6, 51.5 24.3, 64.0 24.9 C 76.5 25.4, 90.7 28.1, 99.6 35.9 C 108.5 43.7, 117.5 59.7, 117.4 71.5 Z" fill="#3a2154" stroke="#16131f" stroke-width="3" stroke-linejoin="round"/><path d="M 67.3 59.1 L 79.3 11.0 L 89.4 59.1 Z" fill="#6a32b0" stroke="#16131f" stroke-width="2" stroke-linejoin="round"/><path d="M 78.4 59.1 L 79.3 11.0 L 89.4 59.1 Z" fill="#c79bff" opacity="0.85"/><path d="M 67.3 59.1 L 79.3 11.0 L 78.4 59.1 Z" fill="#3a2154" opacity="0.9"/><path d="M 62.6 59.1 L 73.2 17.9 L 86.1 59.1 Z" fill="#6a32b0" stroke="#16131f" stroke-width="2" stroke-linejoin="round"/><path d="M 74.4 59.1 L 73.2 17.9 L 86.1 59.1 Z" fill="#c79bff" opacity="0.85"/><path d="M 62.6 59.1 L 73.2 17.9 L 74.4 59.1 Z" fill="#3a2154" opacity="0.9"/><path d="M 79.5 61.2 L 87.4 14.7 L 98.1 61.2 Z" fill="#6a32b0" stroke="#16131f" stroke-width="2" stroke-linejoin="round"/><path d="M 88.8 61.2 L 87.4 14.7 L 98.1 61.2 Z" fill="#c79bff" opacity="0.85"/><path d="M 79.5 61.2 L 87.4 14.7 L 88.8 61.2 Z" fill="#3a2154" opacity="0.9"/><path d="M 53.2 61.9 L 67.7 25.8 L 76.4 61.9 Z" fill="#6a32b0" stroke="#16131f" stroke-width="2" stroke-linejoin="round"/><path d="M 64.8 61.9 L 67.7 25.8 L 76.4 61.9 Z" fill="#c79bff" opacity="0.85"/><path d="M 53.2 61.9 L 67.7 25.8 L 64.8 61.9 Z" fill="#3a2154" opacity="0.9"/><circle cx="78.4" cy="37.5" r="1.3" fill="#e9c6ff" opacity="0.9"/><circle cx="80.9" cy="51.9" r="1.3" fill="#e9c6ff" opacity="0.9"/><circle cx="62.5" cy="43.5" r="1.3" fill="#e9c6ff" opacity="0.9"/><circle cx="50.9" cy="46.1" r="1.3" fill="#e9c6ff" opacity="0.9"/></svg>