<svg xmlns="http://www.w3.org/2000/svg" width="128" height="128" viewBox="0 0 128 128"><path d="M 121.1 64.0 C 122.2 73.1, 116.1 86.4, 109.9 93.5 C 103.6 100.5, 92.2 103.0, 83.4 106.4 C 74.5 109.8, 66.1 114.2, 56.8 114.0 C 47.5 113.9, 33.9 112.0, 27.8 105.8 C 21.7 99.5, 22.7 86.3, 20.3 76.8 C 17.9 67.4, 10.8 56.6, 13.5 49.2 C 16.3 41.8, 29.4 37.5, 36.8 32.6 C 44.1 27.6, 49.9 21.1, 57.6 19.4 C 65.3 17.7, 75.5 19.0, 83.1 22.3 C 90.6 25.5, 96.6 32.0, 102.9 39.0 C 109.3 45.9, 119.9 54.9, 121.1 64.0 Z" fill="#3c5e34" stroke="#2b4526" stroke-width="2" opacity="0.85" stroke-linejoin="round"/><path d="M 89.2 56.5 C 88.7 62.6, 84.4 69.5, 80.5 73.9 C 76.5 78.4, 70.8 81.2, 65.2 83.2 C 59.6 85.2, 51.9 88.0, 46.9 86.1 C 41.9 84.2, 37.8 76.9, 35.2 72.0 C 32.6 67.0, 31.4 61.6, 31.5 56.5 C 31.6 51.4, 33.2 45.9, 35.9 41.6 C 38.7 37.2, 43.2 32.7, 48.1 30.6 C 53.0 28.5, 59.6 28.1, 65.4 29.2 C 71.2 30.3, 79.0 32.7, 83.0 37.3 C 86.9 41.8, 89.6 50.4, 89.2 56.5 Z" fill="#5c8a44" opacity="0.4"/><line x1="51.5" y1="61.5" x2="49.0" y2="52.8" stroke="#76a64e" stroke-width="2" stroke-linecap="round"/><line x1="51.5" y1="61.5" x2="54.0" y2="53.7" stroke="#76a64e" stroke-width="2" stroke-linecap="round"/><line x1="51.5" y1="61.5" x2="51.5" y2="52.4" stroke="#76a64e" stroke-width="2" stroke-linecap="round"/><line x1="67.1" y1="62.0" x2="64.6" y2="50.9" stroke="#5c8a44" stroke-width="2" stroke-linecap="round"/><line x1="67.1" y1="62.0" x2="69.6" y2="52.0" stroke="#5c8a44" stroke-width="2" stroke-linecap="round"/><line x1="67.1" y1="62.0" x2="67.1" y2="50.3" stroke="#5c8a44" stroke-width="2" stroke-linecap="round"/><line x1="91.2" y1="51.4" x2="88.7" y2="44.3" stroke="#76a64e" stroke-width="2" stroke-linecap="round"/><line x1="91.2" y1="51.4" x2="93.7" y2="45.0" stroke="#76a64e" stroke-width="2" stroke-linecap="round"/><line x1="91.2" y1="51.4" x2="91.2" y2="43.9" stroke="#76a64e" stroke-width="2" stroke-linecap="round"/><line x1="40.9" y1="50.9" x2="38.4" y2="39.0" stroke="#76a64e" stroke-width="2" stroke-linecap="round"/><line x1="40.9" y1="50.9" x2="43.4" y2="40.2" stroke="#76a64e" stroke-width="2" stroke-linecap="round"/><line x1="40.9" y1="50.9" x2="40.9" y2="38.4" stroke="#76a64e" stroke-width="2" stroke-linecap="round"/><line x1="54.2" y1="41.5" x2="51.7" y2="32.5" stroke="#76a64e" stroke-width="2" stroke-linecap="round"/><line x1="54.2" y1="41.5" x2="56.7" y2="33.4" stroke="#76a64e" stroke-width="2" stroke-linecap="round"/><line x1="54.2" y1="41.5" x2="54.2" y2="32.0" stroke="#76a64e" stroke-width="2" stroke-linecap="round"/><line x1="58.2" y1="62.1" x2="55.7" y2="54.9" stroke="#76a64e" stroke-width="2" stroke-linecap="round"/><line x1="58.2" y1="62.1" x2="60.7" y2="55.7" stroke="#76a64e" stroke-width="2" stroke-linecap="round"/><line x1="58.2" y1="62.1" x2="58.2" y2="54.6" stroke="#76a64e" stroke-width="2" stroke-linecap="round"/><line x1="80.4" y1="79.6" x2="77.9" y2="70.4" stroke="#76a64e" stroke-width="2" stroke-linecap="round"/><line x1="80.4" y1="79.6" x2="82.9" y2="71.4" stroke="#76a64e" stroke-width="2" stroke-linecap="round"/><line x1="80.4" y1="79.6" x2="80.4" y2="70.0" stroke="#76a64e" stroke-width="2" stroke-linecap="round"/><line x1="47.1" y1="81.6" x2="44.6" y2="71.1" stroke="#5c8a44" stroke-width="2" stroke-linecap="round"/><line x1="47.1" y1="81.6" x2="49.6" y2="72.2" stroke="#5c8a44" stroke-width="2" stroke-linecap="round"/><line x1="47.1" y1="81.6" x2="47.1" y2="70.6" stroke="#5c8a44" stroke-width="2" stroke-linecap="round"/><line x1="57.7" y1="98.6" x2="55.2" y2="90.3" stroke="#76a64e" stroke-width="2" stroke-linecap="round"/><line x1="57.7" y1="98.6" x2="60.2" y2="91.2" stroke="#76a64e" stroke-width="2" stroke-linecap="round"/><line x1="57.7" y1="98.6" x2="57.7" y2="89.9" stroke="#76a64e" stroke-width="2" stroke-linecap="round"/><line x1="61.5" y1="41.5" x2="59.0" y2="34.2" stroke="#76a64e" stroke-width="2" stroke-linecap="round"/><line x1="61.5" y1="41.5" x2="64.0" y2="34.9" stroke="#76a64e" stroke-width="2" stroke-linecap="round"/><line x1="61.5" y1="41.5" x2="61.5" y2="33.8" stroke="#76a64e" stroke-width="2" stroke-linecap="round"/><line x1="66.6" y1="45.3" x2="64.1" y2="34.8" stroke="#76a64e" stroke-width="2" stroke-linecap="round"/><line x1="66.6" y1="45.3" x2="69.1" y2="35.9" stroke="#76a64e" stroke-width="2" stroke-linecap="round"/><line x1="66.6" y1="45.3" x2="66.6" y2="34.3" stroke="#76a64e" stroke-width="2" stroke-linecap="round"/><line x1="74.7" y1="67.5" x2="72.2" y2="57.3" stroke="#76a64e" stroke-width="2" stroke-linecap="round"/><line x1="74.7" y1="67.5" x2="77.2" y2="58.3" stroke="#76a64e" stroke-width="2" stroke-linecap="round"/><line x1="74.7" y1="67.5" x2="74.7" y2="56.7" stroke="#76a64e" stroke-width="2" stroke-linecap="round"/><line x1="65.7" y1="61.8" x2="63.2" y2="50.2" stroke="#5c8a44" stroke-width="2" stroke-linecap="round"/><line x1="65.7" y1="61.8" x2="68.2" y2="51.4" stroke="#5c8a44" stroke-width="2" stroke-linecap="round"/><line x1="65.7" y1="61.8" x2="65.7" y2="49.6" stroke="#5c8a44" stroke-width="2" stroke-linecap="round"/><line x1="65.2" y1="46.5" x2="62.7" y2="38.8" stroke="#76a64e" stroke-width="2" stroke-linecap="round"/><line x1="65.2" y1="46.5" x2="67.7" y2="39.6" stroke="#76a64e" stroke-width="2" stroke-linecap="round"/><line x1="65.2" y1="46.5" x2="65.2" y2="38.4" stroke="#76a64e" stroke-width="2" stroke-linecap="round"/></svg>