<svg xmlns="http://www.w3.org/2000/svg" width="128" height="128" viewBox="0 0 128 128">
  <defs>
    <radialGradient id="g1bg" cx="50%" cy="60%" r="60%">
      <stop offset="0%" stop-color="#6abf4b"/>
      <stop offset="100%" stop-color="#2d6b1e"/>
    </radialGradient>
    <radialGradient id="g1shine" cx="35%" cy="30%" r="50%">
      <stop offset="0%" stop-color="#fff" stop-opacity="0.15"/>
      <stop offset="100%" stop-color="#fff" stop-opacity="0"/>
    </radialGradient>
  </defs>
  <!-- ground base -->
  <rect width="128" height="128" fill="url(#g1bg)" rx="8"/>
  <!-- soil patches -->
  <ellipse cx="20" cy="110" rx="18" ry="8" fill="#3d8a28" opacity="0.5"/>
  <ellipse cx="100" cy="105" rx="14" ry="6" fill="#3d8a28" opacity="0.4"/>
  <ellipse cx="64" cy="115" rx="22" ry="7" fill="#2d6b1e" opacity="0.5"/>
  <!-- grass tufts - back row -->
  <g fill="#4cb83a" stroke="#2d6b1e" stroke-width="1.2">
    <path d="M18 88 Q16 72 14 65 Q18 70 20 65 Q22 72 24 65 Q26 72 22 88Z"/>
    <path d="M35 82 Q33 68 31 62 Q35 67 37 62 Q39 68 41 62 Q43 68 39 82Z"/>
    <path d="M85 85 Q83 70 81 64 Q85 69 87 64 Q89 70 91 64 Q93 70 89 85Z"/>
    <path d="M105 80 Q103 66 101 60 Q105 65 107 60 Q109 66 111 60 Q113 66 109 80Z"/>
  </g>
  <!-- grass tufts - mid row -->
  <g fill="#5ecf46" stroke="#3d8a28" stroke-width="1">
    <path d="M8 98 Q7 86 5 80 Q8 84 10 80 Q12 86 14 80 Q15 86 12 98Z"/>
    <path d="M50 90 Q48 76 46 70 Q50 75 52 70 Q54 76 56 70 Q58 76 54 90Z"/>
    <path d="M68 92 Q66 78 64 72 Q68 77 70 72 Q72 78 74 72 Q76 78 72 92Z"/>
    <path d="M115 92 Q113 80 111 74 Q115 79 117 74 Q119 80 121 74 Q122 80 119 92Z"/>
  </g>
  <!-- small flowers -->
  <g fill="#f5e033">
    <circle cx="30" cy="75" r="2.5"/>
    <circle cx="78" cy="68" r="2"/>
    <circle cx="95" cy="80" r="2.5"/>
    <circle cx="55" cy="72" r="2"/>
  </g>
  <g fill="#fff" opacity="0.8">
    <circle cx="30" cy="75" r="1.2"/>
    <circle cx="78" cy="68" r="1"/>
    <circle cx="95" cy="80" r="1.2"/>
    <circle cx="55" cy="72" r="1"/>
  </g>
  <!-- ground texture dots -->
  <g fill="#3d8a28" opacity="0.4">
    <circle cx="44" cy="108" r="2"/> <circle cx="72" cy="104" r="1.5"/>
    <circle cx="90" cy="112" r="2"/> <circle cx="16" cy="118" r="1.5"/>
    <circle cx="110" cy="116" r="2"/>
  </g>
  <!-- shine overlay -->
  <rect width="128" height="128" fill="url(#g1shine)" rx="8"/>
</svg>
