<svg xmlns="http://www.w3.org/2000/svg" width="128" height="128" viewBox="0 0 128 128">
  <defs>
    <radialGradient id="bg" cx="55%" cy="45%" r="60%">
      <stop offset="0%" stop-color="#8bd96a"/><stop offset="100%" stop-color="#3d8228"/>
    </radialGradient>
  </defs>
  <rect width="128" height="128" fill="url(#bg)" rx="8"/>
  <!-- clover leaves -->
  <g fill="#4ab034" opacity="0.7">
    <circle cx="20" cy="85" r="7"/><circle cx="26" cy="79" r="7"/><circle cx="14" cy="79" r="7"/>
    <circle cx="70" cy="75" r="6"/><circle cx="76" cy="69" r="6"/><circle cx="64" cy="69" r="6"/>
    <circle cx="105" cy="88" r="5"/><circle cx="111" cy="83" r="5"/><circle cx="99" cy="83" r="5"/>
  </g>
  <!-- daisy flowers -->
  <g fill="#fff" opacity="0.9">
    <circle cx="45" cy="70" r="5"/><circle cx="90" cy="60" r="4"/><circle cx="55" cy="95" r="4.5"/>
  </g>
  <g fill="#f5d020">
    <circle cx="45" cy="70" r="2.5"/><circle cx="90" cy="60" r="2"/><circle cx="55" cy="95" r="2.2"/>
  </g>
  <g fill="#7dd65e" stroke="#2d6018" stroke-width="0.8">
    <path d="M30 90 Q29 79 27 73 Q30 78 32 73 Q34 79 35 73 Q36 79 33 90Z"/>
    <path d="M80 82 Q79 71 77 65 Q80 70 82 65 Q84 71 85 65 Q86 71 83 82Z"/>
    <path d="M115 78 Q114 67 112 61 Q115 66 117 61 Q119 67 120 61 Q121 67 118 78Z"/>
  </g>
  <rect width="128" height="128" fill="#c8f080" opacity="0.08" rx="8"/>
</svg>
