<svg xmlns="http://www.w3.org/2000/svg" width="128" height="128" viewBox="0 0 128 128">
  <defs>
    <radialGradient id="bg" cx="45%" cy="55%" r="65%">
      <stop offset="0%" stop-color="#52a63a"/><stop offset="100%" stop-color="#1e5414"/>
    </radialGradient>
  </defs>
  <rect width="128" height="128" fill="url(#bg)" rx="8"/>
  <path d="M0 70 Q32 50 64 65 Q96 80 128 60 L128 128 L0 128Z" fill="#1a4810" opacity="0.4"/>
  <ellipse cx="25" cy="45" rx="12" ry="8" fill="#7a8a6a" opacity="0.5"/>
  <ellipse cx="95" cy="35" rx="10" ry="6" fill="#7a8a6a" opacity="0.4"/>
  <g fill="#68c44e" stroke="#2a6018" stroke-width="1">
    <path d="M10 75 Q8 60 6 52 Q10 58 12 52 Q14 60 16 52 Q18 60 14 75Z"/>
    <path d="M42 72 Q40 58 38 51 Q42 57 44 51 Q46 58 48 51 Q50 58 46 72Z"/>
    <path d="M78 70 Q76 57 74 50 Q78 56 80 50 Q82 57 84 50 Q86 57 82 70Z"/>
    <path d="M114 78 Q112 65 110 58 Q114 64 116 58 Q118 65 120 58 Q122 65 118 78Z"/>
  </g>
  <g fill="#c46ee8"><circle cx="33" cy="65" r="2.5"/><circle cx="72" cy="62" r="2"/><circle cx="88" cy="68" r="2.5"/></g>
  <g fill="#9ede78" opacity="0.2"><ellipse cx="30" cy="50" rx="8" ry="5"/><ellipse cx="75" cy="45" rx="10" ry="6"/></g>
</svg>
