<svg xmlns="http://www.w3.org/2000/svg" width="128" height="128" viewBox="0 0 128 128">
  <defs>
    <radialGradient id="g" cx="50%" cy="55%" r="55%">
      <stop offset="0%" stop-color="#6abf4b"/>
      <stop offset="100%" stop-color="#2d6b1e"/>
    </radialGradient>
    <clipPath id="shape">
      <path d="M18 72 C12 55 16 38 28 28 C40 18 58 14 74 18 C88 22 102 30 110 46 C118 62 116 80 106 92 C96 104 78 110 60 108 C42 106 24 90 18 72Z"/>
    </clipPath>
  </defs>
  <!-- organic patch base -->
  <path d="M18 72 C12 55 16 38 28 28 C40 18 58 14 74 18 C88 22 102 30 110 46 C118 62 116 80 106 92 C96 104 78 110 60 108 C42 106 24 90 18 72Z" fill="url(#g)" opacity="0.92"/>
  <!-- inner lighter highlight -->
  <ellipse cx="62" cy="60" rx="28" ry="20" fill="#8ad960" opacity="0.35"/>
  <!-- grass blade tufts -->
  <g clip-path="url(#shape)" fill="#4ab034" stroke="#2d6018" stroke-width="0.8">
    <path d="M38 78 Q36 66 34 60 Q38 65 40 60 Q42 66 44 60 Q46 67 42 78Z"/>
    <path d="M58 68 Q56 57 54 51 Q58 56 60 51 Q62 57 64 51 Q66 58 62 68Z"/>
    <path d="M80 74 Q78 62 76 56 Q80 61 82 56 Q84 62 86 56 Q88 63 84 74Z"/>
    <path d="M96 62 Q94 52 92 47 Q96 51 98 47 Q100 52 102 47 Q103 53 100 62Z"/>
    <path d="M48 88 Q46 78 44 73 Q48 77 50 73 Q52 78 54 73 Q55 79 52 88Z"/>
    <path d="M70 92 Q68 82 66 77 Q70 81 72 77 Q74 82 76 77 Q77 83 74 92Z"/>
  </g>
  <!-- wildflowers -->
  <g clip-path="url(#shape)">
    <circle cx="50" cy="72" r="3" fill="#f5e033"/>
    <circle cx="72" cy="58" r="2.5" fill="#ff8ae2"/>
    <circle cx="90" cy="70" r="2.5" fill="#f5e033"/>
    <circle cx="62" cy="88" r="2" fill="#ffffff" opacity="0.9"/>
    <circle cx="50" cy="72" r="1.2" fill="#ff9900"/>
    <circle cx="72" cy="58" r="1" fill="#cc44aa"/>
    <circle cx="90" cy="70" r="1.2" fill="#ff9900"/>
  </g>
  <!-- soft edge shadow -->
  <path d="M18 72 C12 55 16 38 28 28 C40 18 58 14 74 18 C88 22 102 30 110 46 C118 62 116 80 106 92 C96 104 78 110 60 108 C42 106 24 90 18 72Z" fill="none" stroke="#1a4010" stroke-width="2" opacity="0.4"/>
</svg>
