<svg xmlns="http://www.w3.org/2000/svg" width="128" height="128" viewBox="0 0 128 128"><path d="M 110.6 64.0 C 110.7 73.8, 114.0 85.0, 110.3 93.7 C 106.5 102.5, 97.0 111.9, 87.9 116.4 C 78.9 121.0, 64.6 124.1, 55.8 121.0 C 47.0 117.8, 42.0 104.5, 35.0 97.5 C 28.1 90.4, 17.7 86.7, 14.1 78.6 C 10.5 70.6, 11.2 58.6, 13.4 49.2 C 15.6 39.7, 20.2 28.1, 27.4 21.7 C 34.5 15.4, 46.9 11.1, 56.4 10.8 C 65.8 10.5, 75.4 15.7, 84.2 19.7 C 93.0 23.7, 104.9 27.5, 109.3 34.9 C 113.7 42.3, 110.4 54.2, 110.6 64.0 Z" fill="#3c5e34" stroke="#2b4526" stroke-width="2" opacity="0.85" stroke-linejoin="round"/><path d="M 83.4 56.5 C 83.1 62.9, 85.0 70.8, 81.8 74.9 C 78.7 79.0, 70.0 79.8, 64.4 81.0 C 58.9 82.1, 54.1 82.6, 48.3 81.8 C 42.5 80.9, 33.3 80.1, 29.8 75.9 C 26.3 71.7, 27.7 63.2, 27.4 56.5 C 27.2 49.8, 25.0 41.1, 28.2 35.9 C 31.3 30.8, 40.1 27.1, 46.5 25.6 C 52.8 24.1, 59.8 25.2, 66.1 27.1 C 72.3 28.9, 81.0 31.7, 83.9 36.6 C 86.8 41.5, 83.8 50.1, 83.4 56.5 Z" fill="#5c8a44" opacity="0.4"/><line x1="63.2" y1="79.9" x2="60.7" y2="70.7" stroke="#76a64e" stroke-width="2" stroke-linecap="round"/><line x1="63.2" y1="79.9" x2="65.7" y2="71.6" stroke="#76a64e" stroke-width="2" stroke-linecap="round"/><line x1="63.2" y1="79.9" x2="63.2" y2="70.2" stroke="#76a64e" stroke-width="2" stroke-linecap="round"/><line x1="93.8" y1="75.1" x2="91.3" y2="64.9" stroke="#5c8a44" stroke-width="2" stroke-linecap="round"/><line x1="93.8" y1="75.1" x2="96.3" y2="66.0" stroke="#5c8a44" stroke-width="2" stroke-linecap="round"/><line x1="93.8" y1="75.1" x2="93.8" y2="64.4" stroke="#5c8a44" stroke-width="2" stroke-linecap="round"/><line x1="75.8" y1="75.7" x2="73.3" y2="68.1" stroke="#5c8a44" stroke-width="2" stroke-linecap="round"/><line x1="75.8" y1="75.7" x2="78.3" y2="68.9" stroke="#5c8a44" stroke-width="2" stroke-linecap="round"/><line x1="75.8" y1="75.7" x2="75.8" y2="67.8" stroke="#5c8a44" stroke-width="2" stroke-linecap="round"/><line x1="44.0" y1="70.6" x2="41.5" y2="62.3" stroke="#5c8a44" stroke-width="2" stroke-linecap="round"/><line x1="44.0" y1="70.6" x2="46.5" y2="63.1" stroke="#5c8a44" stroke-width="2" stroke-linecap="round"/><line x1="44.0" y1="70.6" x2="44.0" y2="61.9" stroke="#5c8a44" stroke-width="2" stroke-linecap="round"/><line x1="96.0" y1="59.9" x2="93.5" y2="48.8" stroke="#76a64e" stroke-width="2" stroke-linecap="round"/><line x1="96.0" y1="59.9" x2="98.5" y2="49.9" stroke="#76a64e" stroke-width="2" stroke-linecap="round"/><line x1="96.0" y1="59.9" x2="96.0" y2="48.2" stroke="#76a64e" stroke-width="2" stroke-linecap="round"/><line x1="67.0" y1="69.5" x2="64.5" y2="62.4" stroke="#76a64e" stroke-width="2" stroke-linecap="round"/><line x1="67.0" y1="69.5" x2="69.5" y2="63.1" stroke="#76a64e" stroke-width="2" stroke-linecap="round"/><line x1="67.0" y1="69.5" x2="67.0" y2="62.0" stroke="#76a64e" stroke-width="2" stroke-linecap="round"/><line x1="78.0" y1="66.0" x2="75.5" y2="58.0" stroke="#76a64e" stroke-width="2" stroke-linecap="round"/><line x1="78.0" y1="66.0" x2="80.5" y2="58.8" stroke="#76a64e" stroke-width="2" stroke-linecap="round"/><line x1="78.0" y1="66.0" x2="78.0" y2="57.6" stroke="#76a64e" stroke-width="2" stroke-linecap="round"/><line x1="85.8" y1="69.7" x2="83.3" y2="61.4" stroke="#5c8a44" stroke-width="2" stroke-linecap="round"/><line x1="85.8" y1="69.7" x2="88.3" y2="62.2" stroke="#5c8a44" stroke-width="2" stroke-linecap="round"/><line x1="85.8" y1="69.7" x2="85.8" y2="61.0" stroke="#5c8a44" stroke-width="2" stroke-linecap="round"/><line x1="55.3" y1="77.0" x2="52.8" y2="66.6" stroke="#5c8a44" stroke-width="2" stroke-linecap="round"/><line x1="55.3" y1="77.0" x2="57.8" y2="67.6" stroke="#5c8a44" stroke-width="2" stroke-linecap="round"/><line x1="55.3" y1="77.0" x2="55.3" y2="66.0" stroke="#5c8a44" stroke-width="2" stroke-linecap="round"/><line x1="90.0" y1="49.4" x2="87.5" y2="37.6" stroke="#76a64e" stroke-width="2" stroke-linecap="round"/><line x1="90.0" y1="49.4" x2="92.5" y2="38.8" stroke="#76a64e" stroke-width="2" stroke-linecap="round"/><line x1="90.0" y1="49.4" x2="90.0" y2="37.0" stroke="#76a64e" stroke-width="2" stroke-linecap="round"/><line x1="64.8" y1="74.6" x2="62.3" y2="66.7" stroke="#76a64e" stroke-width="2" stroke-linecap="round"/><line x1="64.8" y1="74.6" x2="67.3" y2="67.5" stroke="#76a64e" stroke-width="2" stroke-linecap="round"/><line x1="64.8" y1="74.6" x2="64.8" y2="66.3" stroke="#76a64e" stroke-width="2" stroke-linecap="round"/><line x1="42.4" y1="51.8" x2="39.9" y2="43.8" stroke="#76a64e" stroke-width="2" stroke-linecap="round"/><line x1="42.4" y1="51.8" x2="44.9" y2="44.6" stroke="#76a64e" stroke-width="2" stroke-linecap="round"/><line x1="42.4" y1="51.8" x2="42.4" y2="43.4" stroke="#76a64e" stroke-width="2" stroke-linecap="round"/></svg>