<svg xmlns="http://www.w3.org/2000/svg" width="128" height="128" viewBox="0 0 128 128">
  <defs>
    <radialGradient id="g" cx="45%" cy="50%" r="60%">
      <stop offset="0%" stop-color="#5ab03a"/>
      <stop offset="100%" stop-color="#1e5414"/>
    </radialGradient>
  </defs>
  <!-- irregular horizontal patch -->
  <path d="M10 65 C8 50 18 35 34 30 C48 26 65 28 82 26 C98 24 114 32 118 48 C122 64 112 80 96 86 C80 92 58 94 40 90 C22 86 12 80 10 65Z" fill="url(#g)" opacity="0.9"/>
  <ellipse cx="65" cy="58" rx="32" ry="16" fill="#7ccc50" opacity="0.3"/>
  <!-- clover leaves -->
  <g fill="#3a9a2a" opacity="0.75">
    <circle cx="32" cy="62" r="6"/><circle cx="38" cy="56" r="6"/><circle cx="26" cy="56" r="6"/>
    <circle cx="68" cy="56" r="5"/><circle cx="74" cy="50" r="5"/><circle cx="62" cy="50" r="5"/>
    <circle cx="100" cy="58" r="5"/><circle cx="106" cy="52" r="5"/><circle cx="94" cy="52" r="5"/>
  </g>
  <!-- clover stems -->
  <g stroke="#2a7020" stroke-width="1.2" opacity="0.6">
    <line x1="32" y1="68" x2="32" y2="76"/><line x1="68" y1="62" x2="68" y2="72"/>
    <line x1="100" y1="64" x2="100" y2="72"/>
  </g>
  <!-- daisies -->
  <circle cx="50" cy="74" r="3.5" fill="#fffde0" opacity="0.9"/>
  <circle cx="50" cy="74" r="1.5" fill="#f5c020"/>
  <circle cx="84" cy="68" r="3" fill="#fffde0" opacity="0.9"/>
  <circle cx="84" cy="68" r="1.2" fill="#f5c020"/>
  <path d="M10 65 C8 50 18 35 34 30 C48 26 65 28 82 26 C98 24 114 32 118 48 C122 64 112 80 96 86 C80 92 58 94 40 90 C22 86 12 80 10 65Z" fill="none" stroke="#0e3808" stroke-width="1.5" opacity="0.35"/>
</svg>
