<svg xmlns="http://www.w3.org/2000/svg" width="128" height="128" viewBox="0 0 128 128"><path d="M 107.2 64.0 C 107.6 72.8, 109.8 83.0, 106.3 91.2 C 102.9 99.4, 94.8 108.5, 86.4 113.1 C 78.1 117.8, 64.8 121.6, 56.1 119.1 C 47.4 116.7, 40.4 105.4, 34.2 98.4 C 27.9 91.5, 22.1 85.5, 18.6 77.3 C 15.2 69.1, 11.5 57.8, 13.5 49.2 C 15.5 40.5, 23.2 30.2, 30.5 25.4 C 37.9 20.5, 48.3 21.9, 57.7 20.0 C 67.0 18.1, 79.0 11.1, 86.7 14.2 C 94.5 17.2, 100.5 30.0, 103.9 38.3 C 107.3 46.6, 106.8 55.2, 107.2 64.0 Z" fill="#3c5e34" stroke="#2b4526" stroke-width="2" opacity="0.85" stroke-linejoin="round"/><path d="M 89.9 56.5 C 89.6 61.8, 81.3 66.6, 77.3 71.6 C 73.3 76.6, 71.0 84.8, 66.2 86.3 C 61.4 87.9, 54.8 82.6, 48.5 81.0 C 42.3 79.4, 32.8 80.9, 28.5 76.8 C 24.2 72.7, 21.7 62.4, 22.8 56.5 C 24.0 50.6, 31.2 45.3, 35.5 41.3 C 39.8 37.2, 43.6 34.5, 48.7 32.3 C 53.7 30.2, 60.6 26.9, 65.7 28.1 C 70.9 29.3, 75.5 35.0, 79.6 39.7 C 83.6 44.5, 90.3 51.2, 89.9 56.5 Z" fill="#5c8a44" opacity="0.4"/><line x1="56.2" y1="64.5" x2="53.7" y2="55.4" stroke="#76a64e" stroke-width="2" stroke-linecap="round"/><line x1="56.2" y1="64.5" x2="58.7" y2="56.3" stroke="#76a64e" stroke-width="2" stroke-linecap="round"/><line x1="56.2" y1="64.5" x2="56.2" y2="55.0" stroke="#76a64e" stroke-width="2" stroke-linecap="round"/><line x1="38.6" y1="85.4" x2="36.1" y2="78.2" stroke="#76a64e" stroke-width="2" stroke-linecap="round"/><line x1="38.6" y1="85.4" x2="41.1" y2="78.9" stroke="#76a64e" stroke-width="2" stroke-linecap="round"/><line x1="38.6" y1="85.4" x2="38.6" y2="77.8" stroke="#76a64e" stroke-width="2" stroke-linecap="round"/><line x1="40.7" y1="44.5" x2="38.2" y2="34.5" stroke="#76a64e" stroke-width="2" stroke-linecap="round"/><line x1="40.7" y1="44.5" x2="43.2" y2="35.5" stroke="#76a64e" stroke-width="2" stroke-linecap="round"/><line x1="40.7" y1="44.5" x2="40.7" y2="34.0" stroke="#76a64e" stroke-width="2" stroke-linecap="round"/><line x1="90.2" y1="60.9" x2="87.7" y2="50.5" stroke="#76a64e" stroke-width="2" stroke-linecap="round"/><line x1="90.2" y1="60.9" x2="92.7" y2="51.5" stroke="#76a64e" stroke-width="2" stroke-linecap="round"/><line x1="90.2" y1="60.9" x2="90.2" y2="50.0" stroke="#76a64e" stroke-width="2" stroke-linecap="round"/><line x1="66.9" y1="68.1" x2="64.4" y2="57.2" stroke="#76a64e" stroke-width="2" stroke-linecap="round"/><line x1="66.9" y1="68.1" x2="69.4" y2="58.3" stroke="#76a64e" stroke-width="2" stroke-linecap="round"/><line x1="66.9" y1="68.1" x2="66.9" y2="56.7" stroke="#76a64e" stroke-width="2" stroke-linecap="round"/><line x1="45.0" y1="64.7" x2="42.5" y2="53.9" stroke="#76a64e" stroke-width="2" stroke-linecap="round"/><line x1="45.0" y1="64.7" x2="47.5" y2="55.0" stroke="#76a64e" stroke-width="2" stroke-linecap="round"/><line x1="45.0" y1="64.7" x2="45.0" y2="53.4" stroke="#76a64e" stroke-width="2" stroke-linecap="round"/><line x1="41.0" y1="80.2" x2="38.5" y2="70.0" stroke="#5c8a44" stroke-width="2" stroke-linecap="round"/><line x1="41.0" y1="80.2" x2="43.5" y2="71.0" stroke="#5c8a44" stroke-width="2" stroke-linecap="round"/><line x1="41.0" y1="80.2" x2="41.0" y2="69.5" stroke="#5c8a44" stroke-width="2" stroke-linecap="round"/><line x1="35.2" y1="62.5" x2="32.7" y2="51.3" stroke="#5c8a44" stroke-width="2" stroke-linecap="round"/><line x1="35.2" y1="62.5" x2="37.7" y2="52.5" stroke="#5c8a44" stroke-width="2" stroke-linecap="round"/><line x1="35.2" y1="62.5" x2="35.2" y2="50.8" stroke="#5c8a44" stroke-width="2" stroke-linecap="round"/><line x1="67.6" y1="67.6" x2="65.1" y2="57.6" stroke="#5c8a44" stroke-width="2" stroke-linecap="round"/><line x1="67.6" y1="67.6" x2="70.1" y2="58.6" stroke="#5c8a44" stroke-width="2" stroke-linecap="round"/><line x1="67.6" y1="67.6" x2="67.6" y2="57.1" stroke="#5c8a44" stroke-width="2" stroke-linecap="round"/><line x1="55.8" y1="66.9" x2="53.3" y2="57.3" stroke="#76a64e" stroke-width="2" stroke-linecap="round"/><line x1="55.8" y1="66.9" x2="58.3" y2="58.3" stroke="#76a64e" stroke-width="2" stroke-linecap="round"/><line x1="55.8" y1="66.9" x2="55.8" y2="56.8" stroke="#76a64e" stroke-width="2" stroke-linecap="round"/><line x1="86.2" y1="68.5" x2="83.7" y2="58.9" stroke="#76a64e" stroke-width="2" stroke-linecap="round"/><line x1="86.2" y1="68.5" x2="88.7" y2="59.9" stroke="#76a64e" stroke-width="2" stroke-linecap="round"/><line x1="86.2" y1="68.5" x2="86.2" y2="58.4" stroke="#76a64e" stroke-width="2" stroke-linecap="round"/><line x1="64.2" y1="68.2" x2="61.7" y2="59.6" stroke="#76a64e" stroke-width="2" stroke-linecap="round"/><line x1="64.2" y1="68.2" x2="66.7" y2="60.5" stroke="#76a64e" stroke-width="2" stroke-linecap="round"/><line x1="64.2" y1="68.2" x2="64.2" y2="59.2" stroke="#76a64e" stroke-width="2" stroke-linecap="round"/><line x1="74.2" y1="49.2" x2="71.7" y2="41.4" stroke="#5c8a44" stroke-width="2" stroke-linecap="round"/><line x1="74.2" y1="49.2" x2="76.7" y2="42.1" stroke="#5c8a44" stroke-width="2" stroke-linecap="round"/><line x1="74.2" y1="49.2" x2="74.2" y2="41.0" stroke="#5c8a44" stroke-width="2" stroke-linecap="round"/><line x1="31.8" y1="57.5" x2="29.3" y2="49.3" stroke="#5c8a44" stroke-width="2" stroke-linecap="round"/><line x1="31.8" y1="57.5" x2="34.3" y2="50.2" stroke="#5c8a44" stroke-width="2" stroke-linecap="round"/><line x1="31.8" y1="57.5" x2="31.8" y2="48.9" stroke="#5c8a44" stroke-width="2" stroke-linecap="round"/></svg>