<svg xmlns="http://www.w3.org/2000/svg" width="128" height="128" viewBox="0 0 128 128">
  <defs>
    <radialGradient id="g" cx="52%" cy="52%" r="52%">
      <stop offset="0%" stop-color="#7cd956"/>
      <stop offset="100%" stop-color="#2a6a1a"/>
    </radialGradient>
    <clipPath id="c">
      <path d="M30 80 C22 65 24 48 36 38 C48 28 66 26 80 32 C94 38 104 52 102 68 C100 84 86 96 70 98 C54 100 38 95 30 80Z"/>
    </clipPath>
  </defs>
  <path d="M30 80 C22 65 24 48 36 38 C48 28 66 26 80 32 C94 38 104 52 102 68 C100 84 86 96 70 98 C54 100 38 95 30 80Z" fill="url(#g)" opacity="0.93"/>
  <ellipse cx="64" cy="62" rx="22" ry="16" fill="#a0e870" opacity="0.3"/>
  <g clip-path="url(#c)" fill="#52c038" stroke="#1e5012" stroke-width="0.8">
    <path d="M42 75 Q40 63 38 57 Q42 62 44 57 Q46 63 48 57 Q49 64 46 75Z"/>
    <path d="M58 68 Q56 57 54 51 Q58 56 60 51 Q62 57 63 51 Q64 58 61 68Z"/>
    <path d="M74 72 Q72 61 70 55 Q74 60 76 55 Q78 61 79 55 Q80 62 77 72Z"/>
    <path d="M88 66 Q86 56 84 50 Q88 54 90 50 Q92 55 93 50 Q94 57 91 66Z"/>
    <path d="M50 86 Q48 76 46 71 Q50 75 52 71 Q54 76 55 71 Q56 78 53 86Z"/>
    <path d="M70 90 Q68 80 66 75 Q70 79 72 75 Q74 80 75 75 Q76 82 73 90Z"/>
  </g>
  <!-- white wildflower cluster -->
  <g clip-path="url(#c)">
    <circle cx="64" cy="78" r="4" fill="#fff" opacity="0.88"/>
    <circle cx="64" cy="78" r="1.8" fill="#f0d020"/>
    <circle cx="48" cy="82" r="3" fill="#ff80d0" opacity="0.8"/>
    <circle cx="82" cy="76" r="3" fill="#fff" opacity="0.8"/>
    <circle cx="82" cy="76" r="1.3" fill="#f0d020"/>
  </g>
  <path d="M30 80 C22 65 24 48 36 38 C48 28 66 26 80 32 C94 38 104 52 102 68 C100 84 86 96 70 98 C54 100 38 95 30 80Z" fill="none" stroke="#163010" stroke-width="1.5" opacity="0.35"/>
</svg>
