<svg xmlns="http://www.w3.org/2000/svg" width="128" height="128" viewBox="0 0 128 128"><ellipse cx="64.0" cy="91.5" rx="45.0" ry="14.0" fill="#000000" opacity="0.22"/><path d="M 113.4 64.0 C 112.4 74.4, 105.3 85.1, 98.5 92.9 C 91.6 100.7, 81.7 109.1, 72.2 110.7 C 62.8 112.4, 51.1 107.6, 41.6 102.8 C 32.1 97.9, 20.0 91.2, 15.4 81.7 C 10.8 72.2, 10.2 56.0, 14.1 45.8 C 18.0 35.7, 29.1 26.2, 39.0 20.6 C 48.8 15.1, 62.2 10.8, 73.1 12.4 C 84.0 14.0, 97.4 21.7, 104.2 30.3 C 110.9 38.9, 114.3 53.6, 113.4 64.0 Z" fill="#5e9bca"/><path d="M 105.2 64.0 C 104.9 74.2, 105.2 86.5, 99.6 93.9 C 94.1 101.3, 81.7 106.4, 71.8 108.2 C 61.9 110.1, 49.3 109.7, 40.3 105.1 C 31.3 100.5, 20.5 90.0, 17.9 80.8 C 15.3 71.6, 20.8 58.8, 24.9 49.8 C 29.0 40.8, 34.7 31.6, 42.5 26.8 C 50.3 22.0, 61.8 20.1, 71.6 21.1 C 81.4 22.1, 95.7 25.5, 101.3 32.7 C 106.9 39.8, 105.5 53.8, 105.2 64.0 Z" fill="#9fcdec"/><path d="M 87.1 56.0 C 87.5 62.8, 83.5 73.3, 78.5 77.5 C 73.5 81.8, 63.8 81.8, 57.0 81.5 C 50.2 81.1, 41.7 79.5, 37.7 75.3 C 33.7 71.0, 33.0 62.3, 33.1 56.0 C 33.1 49.7, 34.2 42.3, 38.2 37.2 C 42.2 32.1, 50.7 25.6, 57.0 25.5 C 63.3 25.4, 71.3 31.6, 76.3 36.7 C 81.3 41.8, 86.7 49.2, 87.1 56.0 Z" fill="#d6ecfa" opacity="0.7"/><line x1="69.3" y1="58.7" x2="76.2" y2="48.2" stroke="#eaf6ff" stroke-width="1.4" stroke-linecap="round"/><line x1="76.2" y1="48.2" x2="77.3" y2="38.2" stroke="#eaf6ff" stroke-width="1.4" stroke-linecap="round"/><line x1="77.3" y1="38.2" x2="78.2" y2="29.2" stroke="#eaf6ff" stroke-width="1.4" stroke-linecap="round"/><line x1="65.2" y1="71.4" x2="61.2" y2="80.4" stroke="#eaf6ff" stroke-width="1.4" stroke-linecap="round"/><line x1="61.2" y1="80.4" x2="54.4" y2="91.0" stroke="#eaf6ff" stroke-width="1.4" stroke-linecap="round"/><line x1="54.4" y1="91.0" x2="45.4" y2="99.3" stroke="#eaf6ff" stroke-width="1.4" stroke-linecap="round"/><line x1="69.2" y1="69.4" x2="79.5" y2="71.6" stroke="#eaf6ff" stroke-width="1.4" stroke-linecap="round"/><line x1="79.5" y1="71.6" x2="90.4" y2="68.1" stroke="#eaf6ff" stroke-width="1.4" stroke-linecap="round"/><line x1="90.4" y1="68.1" x2="98.5" y2="63.4" stroke="#eaf6ff" stroke-width="1.4" stroke-linecap="round"/><line x1="37.1" y1="45.3" x2="43.1" y2="45.3" stroke="#ffffff" stroke-width="1.5" stroke-linecap="round"/><line x1="40.1" y1="42.3" x2="40.1" y2="48.3" stroke="#ffffff" stroke-width="1.5" stroke-linecap="round"/><line x1="48.1" y1="54.0" x2="54.1" y2="54.0" stroke="#ffffff" stroke-width="1.5" stroke-linecap="round"/><line x1="51.1" y1="51.0" x2="51.1" y2="57.0" stroke="#ffffff" stroke-width="1.5" stroke-linecap="round"/><line x1="79.5" y1="47.0" x2="85.5" y2="47.0" stroke="#ffffff" stroke-width="1.5" stroke-linecap="round"/><line x1="82.5" y1="44.0" x2="82.5" y2="50.0" stroke="#ffffff" stroke-width="1.5" stroke-linecap="round"/></svg>