<svg xmlns="http://www.w3.org/2000/svg" width="128" height="128" viewBox="0 0 128 128"><ellipse cx="64.0" cy="91.5" rx="45.0" ry="14.0" fill="#000000" opacity="0.22"/><path d="M 110.1 64.0 C 110.2 74.1, 106.7 87.1, 100.3 94.5 C 94.0 101.9, 81.7 106.7, 71.8 108.3 C 61.9 109.8, 50.5 108.2, 41.0 103.8 C 31.5 99.4, 18.1 91.0, 15.0 81.8 C 11.8 72.7, 18.1 59.0, 22.1 48.8 C 26.1 38.6, 30.4 27.2, 39.0 20.7 C 47.6 14.1, 63.5 7.2, 73.6 9.4 C 83.7 11.7, 93.5 25.1, 99.5 34.2 C 105.6 43.3, 109.9 53.9, 110.1 64.0 Z" fill="#5e9bca"/><path d="M 107.4 64.0 C 107.0 73.1, 101.1 83.0, 95.1 90.1 C 89.2 97.3, 80.2 105.3, 71.6 106.9 C 62.9 108.4, 52.0 104.0, 43.5 99.6 C 34.9 95.1, 23.4 88.3, 20.1 80.0 C 16.9 71.6, 20.7 59.1, 24.0 49.4 C 27.2 39.7, 31.8 26.3, 39.7 21.9 C 47.6 17.5, 61.6 20.5, 71.3 22.8 C 80.9 25.1, 91.6 28.9, 97.6 35.8 C 103.7 42.6, 107.9 54.9, 107.4 64.0 Z" fill="#9fcdec"/><path d="M 87.1 56.0 C 87.0 62.7, 81.8 71.0, 76.8 75.8 C 71.8 80.6, 63.3 85.0, 57.0 84.7 C 50.7 84.4, 44.0 78.8, 39.0 74.0 C 34.0 69.2, 27.0 61.9, 27.1 56.0 C 27.2 50.1, 34.5 43.1, 39.5 38.5 C 44.5 34.0, 50.7 29.2, 57.0 28.7 C 63.3 28.2, 72.3 31.1, 77.3 35.7 C 82.3 40.2, 87.2 49.3, 87.1 56.0 Z" fill="#d6ecfa" opacity="0.7"/><line x1="60.8" y1="70.8" x2="55.1" y2="83.1" stroke="#eaf6ff" stroke-width="1.4" stroke-linecap="round"/><line x1="55.1" y1="83.1" x2="56.4" y2="92.2" stroke="#eaf6ff" stroke-width="1.4" stroke-linecap="round"/><line x1="56.4" y1="92.2" x2="62.1" y2="99.6" stroke="#eaf6ff" stroke-width="1.4" stroke-linecap="round"/><line x1="60.6" y1="57.3" x2="50.5" y2="51.0" stroke="#eaf6ff" stroke-width="1.4" stroke-linecap="round"/><line x1="50.5" y1="51.0" x2="40.5" y2="51.0" stroke="#eaf6ff" stroke-width="1.4" stroke-linecap="round"/><line x1="40.5" y1="51.0" x2="30.9" y2="52.6" stroke="#eaf6ff" stroke-width="1.4" stroke-linecap="round"/><line x1="70.9" y1="66.9" x2="79.2" y2="77.4" stroke="#eaf6ff" stroke-width="1.4" stroke-linecap="round"/><line x1="79.2" y1="77.4" x2="81.7" y2="89.7" stroke="#eaf6ff" stroke-width="1.4" stroke-linecap="round"/><line x1="81.7" y1="89.7" x2="86.2" y2="97.8" stroke="#eaf6ff" stroke-width="1.4" stroke-linecap="round"/><line x1="66.4" y1="59.1" x2="72.4" y2="59.1" stroke="#ffffff" stroke-width="1.5" stroke-linecap="round"/><line x1="69.4" y1="56.1" x2="69.4" y2="62.1" stroke="#ffffff" stroke-width="1.5" stroke-linecap="round"/><line x1="85.1" y1="58.8" x2="91.1" y2="58.8" stroke="#ffffff" stroke-width="1.5" stroke-linecap="round"/><line x1="88.1" y1="55.8" x2="88.1" y2="61.8" stroke="#ffffff" stroke-width="1.5" stroke-linecap="round"/><line x1="51.4" y1="83.2" x2="57.4" y2="83.2" stroke="#ffffff" stroke-width="1.5" stroke-linecap="round"/><line x1="54.4" y1="80.2" x2="54.4" y2="86.2" stroke="#ffffff" stroke-width="1.5" stroke-linecap="round"/></svg>