<svg xmlns="http://www.w3.org/2000/svg" width="128" height="128" viewBox="0 0 128 128"><ellipse cx="64.0" cy="91.5" rx="45.0" ry="14.0" fill="#000000" opacity="0.22"/><path d="M 114.1 64.0 C 113.6 74.6, 107.4 86.1, 100.6 94.7 C 93.7 103.3, 83.2 113.6, 73.1 115.5 C 63.0 117.4, 48.8 111.8, 39.8 105.9 C 30.7 100.1, 22.8 90.4, 18.8 80.5 C 14.7 70.5, 12.3 56.4, 15.6 46.4 C 18.9 36.3, 29.3 24.8, 38.7 20.2 C 48.1 15.5, 61.2 16.8, 72.0 18.5 C 82.8 20.3, 96.4 23.4, 103.4 30.9 C 110.4 38.5, 114.6 53.4, 114.1 64.0 Z" fill="#5e9bca"/><path d="M 112.5 64.0 C 112.2 74.1, 106.2 86.0, 99.5 93.8 C 92.8 101.5, 82.1 108.6, 72.2 110.5 C 62.3 112.5, 49.0 110.4, 40.1 105.4 C 31.2 100.4, 21.2 89.8, 18.6 80.5 C 15.9 71.2, 20.3 58.5, 24.2 49.5 C 28.2 40.5, 34.5 31.6, 42.4 26.6 C 50.3 21.5, 62.1 18.2, 71.9 19.3 C 81.6 20.4, 94.2 25.5, 101.0 33.0 C 107.7 40.4, 112.7 53.9, 112.5 64.0 Z" fill="#9fcdec"/><path d="M 82.8 56.0 C 83.1 62.4, 81.6 72.0, 77.3 76.3 C 73.0 80.5, 63.7 81.5, 57.0 81.4 C 50.3 81.4, 41.8 80.3, 37.0 76.0 C 32.2 71.8, 28.0 62.6, 28.1 56.0 C 28.2 49.4, 32.6 41.1, 37.4 36.4 C 42.2 31.7, 50.7 27.8, 57.0 28.0 C 63.3 28.2, 71.0 33.0, 75.3 37.7 C 79.6 42.3, 82.5 49.6, 82.8 56.0 Z" fill="#d6ecfa" opacity="0.7"/><line x1="70.7" y1="60.6" x2="81.4" y2="52.2" stroke="#eaf6ff" stroke-width="1.4" stroke-linecap="round"/><line x1="81.4" y1="52.2" x2="85.6" y2="44.1" stroke="#eaf6ff" stroke-width="1.4" stroke-linecap="round"/><line x1="85.6" y1="44.1" x2="95.9" y2="35.3" stroke="#eaf6ff" stroke-width="1.4" stroke-linecap="round"/><line x1="70.1" y1="59.7" x2="79.1" y2="53.2" stroke="#eaf6ff" stroke-width="1.4" stroke-linecap="round"/><line x1="79.1" y1="53.2" x2="87.2" y2="47.9" stroke="#eaf6ff" stroke-width="1.4" stroke-linecap="round"/><line x1="87.2" y1="47.9" x2="98.7" y2="42.3" stroke="#eaf6ff" stroke-width="1.4" stroke-linecap="round"/><line x1="59.3" y1="69.8" x2="54.7" y2="78.3" stroke="#eaf6ff" stroke-width="1.4" stroke-linecap="round"/><line x1="54.7" y1="78.3" x2="47.4" y2="87.5" stroke="#eaf6ff" stroke-width="1.4" stroke-linecap="round"/><line x1="47.4" y1="87.5" x2="37.4" y2="91.3" stroke="#eaf6ff" stroke-width="1.4" stroke-linecap="round"/><line x1="68.1" y1="70.3" x2="78.2" y2="79.6" stroke="#eaf6ff" stroke-width="1.4" stroke-linecap="round"/><line x1="78.2" y1="79.6" x2="88.3" y2="86.7" stroke="#eaf6ff" stroke-width="1.4" stroke-linecap="round"/><line x1="88.3" y1="86.7" x2="101.2" y2="89.5" stroke="#eaf6ff" stroke-width="1.4" stroke-linecap="round"/><line x1="50.2" y1="48.8" x2="56.2" y2="48.8" stroke="#ffffff" stroke-width="1.5" stroke-linecap="round"/><line x1="53.2" y1="45.8" x2="53.2" y2="51.8" stroke="#ffffff" stroke-width="1.5" stroke-linecap="round"/><line x1="77.7" y1="62.2" x2="83.7" y2="62.2" stroke="#ffffff" stroke-width="1.5" stroke-linecap="round"/><line x1="80.7" y1="59.2" x2="80.7" y2="65.2" stroke="#ffffff" stroke-width="1.5" stroke-linecap="round"/><line x1="76.1" y1="52.6" x2="82.1" y2="52.6" stroke="#ffffff" stroke-width="1.5" stroke-linecap="round"/><line x1="79.1" y1="49.6" x2="79.1" y2="55.6" stroke="#ffffff" stroke-width="1.5" stroke-linecap="round"/></svg>