<svg xmlns="http://www.w3.org/2000/svg" width="128" height="128" viewBox="0 0 128 128">
  <defs>
    <radialGradient id="shadow" cx="50%" cy="76%" r="50%">
      <stop offset="0%" stop-color="#000" stop-opacity="0.2"/><stop offset="100%" stop-color="#000" stop-opacity="0"/>
    </radialGradient>
  </defs>
  <ellipse cx="64" cy="102" rx="44" ry="11" fill="url(#shadow)"/>
  <!-- small bamboo cluster -->
  <g fill="#3a8228" stroke="#1e4a14" stroke-width="1.2">
    <rect x="44" y="34" width="8" height="68" rx="3"/>
    <rect x="58" y="28" width="9" height="74" rx="3"/>
    <rect x="74" y="36" width="8" height="66" rx="3"/>
  </g>
  <!-- bamboo joints -->
  <g fill="#2a6a1c" stroke="#1e4a14" stroke-width="0.8">
    <rect x="43" y="48" width="10" height="2.5" rx="1"/><rect x="43" y="70" width="10" height="2.5" rx="1"/><rect x="43" y="90" width="10" height="2.5" rx="1"/>
    <rect x="57" y="44" width="11" height="2.5" rx="1"/><rect x="57" y="66" width="11" height="2.5" rx="1"/><rect x="57" y="88" width="11" height="2.5" rx="1"/>
    <rect x="73" y="50" width="10" height="2.5" rx="1"/><rect x="73" y="72" width="10" height="2.5" rx="1"/><rect x="73" y="92" width="10" height="2.5" rx="1"/>
  </g>
  <!-- bamboo highlights -->
  <g fill="#5aa838" opacity="0.5">
    <rect x="45" y="36" width="2.5" height="64" rx="1"/>
    <rect x="59" y="30" width="2.5" height="70" rx="1"/>
    <rect x="75" y="38" width="2.5" height="62" rx="1"/>
  </g>
  <!-- leaf sprays at top -->
  <g fill="#4aaa2e" stroke="#2a6a18" stroke-width="0.7">
    <path d="M48 36 C40 30 30 30 24 34 C34 34 42 38 48 42Z"/>
    <path d="M62 30 C56 22 48 18 40 20 C50 24 56 30 62 36Z"/>
    <path d="M78 38 C86 30 96 30 102 34 C92 34 84 38 78 42Z"/>
    <path d="M67 30 C74 22 84 20 92 24 C82 24 74 30 67 36Z"/>
  </g>
  <!-- low grass at base -->
  <g fill="#3a9024" stroke="#1e5012" stroke-width="0.6">
    <path d="M38 98 Q36 90 34 86 Q38 89 40 86 Q42 90 38 98Z"/>
    <path d="M86 98 Q84 90 82 86 Q86 89 88 86 Q90 90 86 98Z"/>
  </g>
</svg>
