<svg xmlns="http://www.w3.org/2000/svg" width="128" height="128" viewBox="0 0 128 128"><ellipse cx="64.0" cy="91.5" rx="47.5" ry="19.0" fill="#000000" opacity="0.22"/><path d="M 102.1 47.5 C 102.2 53.7, 101.5 62.5, 97.6 66.2 C 93.8 69.9, 85.2 69.7, 78.9 69.7 C 72.7 69.7, 64.4 69.8, 60.3 66.1 C 56.2 62.4, 53.9 53.2, 54.3 47.5 C 54.8 41.7, 59.0 35.2, 63.1 31.6 C 67.2 28.0, 73.2 26.4, 78.9 26.0 C 84.6 25.6, 93.3 25.7, 97.1 29.3 C 101.0 32.9, 102.0 41.3, 102.1 47.5 Z" fill="#4f9a4a" stroke="#16131f" stroke-width="2.5" stroke-linejoin="round"/><path d="M 83.3 41.6 C 83.2 44.5, 82.8 48.0, 80.9 49.9 C 78.9 51.9, 74.2 53.8, 71.5 53.1 C 68.9 52.4, 66.5 48.6, 65.2 45.9 C 63.9 43.1, 62.9 39.3, 63.9 36.6 C 65.0 33.9, 68.6 30.6, 71.5 29.9 C 74.4 29.2, 79.5 30.4, 81.5 32.4 C 83.5 34.3, 83.4 38.6, 83.3 41.6 Z" fill="#69b85a" opacity="0.55"/><circle cx="73.5" cy="56.0" r="1.6" fill="#69b85a" opacity="0.7"/><circle cx="73.4" cy="39.5" r="1.6" fill="#69b85a" opacity="0.7"/><path d="M 66.4 55.9 C 66.5 60.6, 60.4 66.9, 56.4 70.2 C 52.4 73.6, 46.7 76.3, 42.1 76.1 C 37.5 76.0, 32.8 72.7, 28.8 69.3 C 24.7 65.9, 18.5 60.9, 17.9 55.9 C 17.4 50.9, 21.4 43.0, 25.4 39.3 C 29.5 35.6, 37.1 33.4, 42.1 33.9 C 47.1 34.4, 51.6 38.8, 55.6 42.4 C 59.7 46.1, 66.2 51.3, 66.4 55.9 Z" fill="#1d4a26" stroke="#16131f" stroke-width="2.5" stroke-linejoin="round"/><path d="M 47.9 50.6 C 48.0 53.2, 46.7 57.8, 44.7 59.2 C 42.7 60.6, 38.3 59.9, 35.9 59.0 C 33.5 58.2, 31.7 56.4, 30.4 54.2 C 29.0 52.0, 27.0 47.8, 27.9 45.8 C 28.8 43.8, 33.3 42.8, 35.9 42.4 C 38.6 42.0, 41.7 41.8, 43.7 43.2 C 45.7 44.6, 47.7 47.9, 47.9 50.6 Z" fill="#69b85a" opacity="0.55"/><circle cx="38.0" cy="52.2" r="1.6" fill="#69b85a" opacity="0.7"/><circle cx="41.9" cy="62.6" r="1.6" fill="#69b85a" opacity="0.7"/><path d="M 87.5 64.0 C 87.3 69.8, 84.8 76.4, 80.8 80.8 C 76.9 85.2, 69.9 90.1, 64.0 90.4 C 58.1 90.7, 49.1 87.1, 45.3 82.7 C 41.5 78.3, 41.0 70.0, 41.1 64.0 C 41.3 58.0, 42.6 50.8, 46.4 46.4 C 50.2 42.1, 58.0 38.1, 64.0 38.0 C 70.0 37.9, 78.3 41.4, 82.3 45.7 C 86.2 50.1, 87.8 58.2, 87.5 64.0 Z" fill="#2f6e38" stroke="#16131f" stroke-width="2.5" stroke-linejoin="round"/><path d="M 69.8 57.8 C 69.7 60.6, 67.8 64.1, 65.6 66.0 C 63.3 67.9, 58.9 70.1, 56.3 69.4 C 53.8 68.8, 51.5 64.6, 50.4 61.9 C 49.3 59.2, 48.7 55.6, 49.7 53.3 C 50.8 51.0, 54.0 48.6, 56.7 47.9 C 59.5 47.2, 63.8 47.4, 66.0 49.0 C 68.1 50.7, 69.9 54.9, 69.8 57.8 Z" fill="#69b85a" opacity="0.55"/><circle cx="68.2" cy="69.7" r="1.6" fill="#69b85a" opacity="0.7"/><circle cx="72.2" cy="58.4" r="1.6" fill="#69b85a" opacity="0.7"/><path d="M 74.9 67.8 C 75.0 73.4, 70.7 80.9, 66.4 85.0 C 62.1 89.0, 55.1 92.1, 49.2 92.2 C 43.4 92.4, 34.8 89.8, 31.3 85.7 C 27.8 81.6, 28.0 73.5, 28.2 67.8 C 28.5 62.1, 29.4 55.3, 32.9 51.5 C 36.4 47.7, 43.7 44.9, 49.2 44.8 C 54.7 44.8, 61.5 47.4, 65.8 51.2 C 70.1 55.0, 74.8 62.2, 74.9 67.8 Z" fill="#4f9a4a" stroke="#16131f" stroke-width="2.5" stroke-linejoin="round"/><path d="M 56.2 61.8 C 56.3 64.5, 53.5 68.2, 51.1 70.2 C 48.7 72.2, 44.5 74.2, 41.7 73.6 C 38.9 73.0, 35.3 69.4, 34.2 66.7 C 33.2 64.0, 34.3 60.2, 35.6 57.5 C 36.9 54.9, 39.4 51.6, 41.9 51.0 C 44.4 50.4, 48.3 52.1, 50.7 53.9 C 53.0 55.7, 56.1 59.1, 56.2 61.8 Z" fill="#69b85a" opacity="0.55"/><circle cx="51.2" cy="58.8" r="1.6" fill="#69b85a" opacity="0.7"/><circle cx="54.3" cy="72.3" r="1.6" fill="#69b85a" opacity="0.7"/><path d="M 87.6 84.6 C 88.0 88.7, 84.9 95.1, 81.7 97.9 C 78.6 100.8, 72.8 101.8, 68.5 101.7 C 64.1 101.6, 59.0 100.2, 55.8 97.3 C 52.6 94.5, 49.3 88.7, 49.5 84.6 C 49.7 80.6, 53.8 76.2, 56.9 73.1 C 60.1 70.0, 64.7 66.0, 68.5 66.0 C 72.3 66.0, 76.7 70.1, 79.9 73.3 C 83.1 76.4, 87.3 80.5, 87.6 84.6 Z" fill="#2f6e38" stroke="#16131f" stroke-width="2.5" stroke-linejoin="round"/><path d="M 72.8 80.2 C 72.8 82.3, 71.4 85.2, 69.8 86.3 C 68.3 87.5, 65.6 87.4, 63.4 87.0 C 61.3 86.6, 57.9 85.8, 56.9 84.1 C 55.9 82.4, 56.5 78.5, 57.5 76.7 C 58.6 74.8, 61.2 73.3, 63.3 72.8 C 65.4 72.3, 68.5 72.6, 70.1 73.8 C 71.7 75.1, 72.9 78.2, 72.8 80.2 Z" fill="#69b85a" opacity="0.55"/><circle cx="64.4" cy="82.8" r="1.6" fill="#69b85a" opacity="0.7"/><circle cx="64.6" cy="88.7" r="1.6" fill="#69b85a" opacity="0.7"/></svg>