<svg xmlns="http://www.w3.org/2000/svg" width="128" height="128" viewBox="0 0 128 128"><ellipse cx="64.0" cy="91.5" rx="47.5" ry="19.0" fill="#000000" opacity="0.22"/><path d="M 94.7 52.5 C 94.5 56.7, 92.5 61.5, 89.6 64.7 C 86.8 67.9, 81.6 71.8, 77.4 71.9 C 73.3 72.0, 68.0 68.4, 64.8 65.2 C 61.6 61.9, 57.9 56.4, 58.2 52.5 C 58.5 48.6, 63.5 45.0, 66.7 41.8 C 69.9 38.5, 73.5 33.4, 77.4 33.0 C 81.4 32.7, 87.5 36.3, 90.4 39.6 C 93.2 42.8, 94.8 48.3, 94.7 52.5 Z" fill="#4f9a4a" stroke="#16131f" stroke-width="2.5" stroke-linejoin="round"/><path d="M 82.2 48.2 C 82.2 50.2, 80.2 52.9, 78.6 54.0 C 77.0 55.1, 74.5 55.1, 72.5 54.7 C 70.4 54.4, 67.2 53.6, 66.2 51.9 C 65.1 50.2, 65.1 46.2, 66.1 44.4 C 67.2 42.6, 70.3 41.7, 72.4 41.3 C 74.5 40.9, 77.3 40.8, 78.9 42.0 C 80.5 43.1, 82.2 46.2, 82.2 48.2 Z" fill="#69b85a" opacity="0.55"/><circle cx="83.4" cy="53.6" r="1.6" fill="#69b85a" opacity="0.7"/><circle cx="70.8" cy="50.6" r="1.6" fill="#69b85a" opacity="0.7"/><path d="M 80.2 53.0 C 80.3 58.6, 75.0 66.1, 70.6 69.9 C 66.2 73.8, 59.2 76.1, 53.7 76.0 C 48.2 75.8, 41.5 72.9, 37.6 69.1 C 33.6 65.3, 30.2 58.5, 30.1 53.0 C 30.0 47.5, 33.1 40.3, 37.0 36.4 C 41.0 32.4, 48.2 29.2, 53.7 29.2 C 59.2 29.3, 65.7 32.6, 70.1 36.6 C 74.5 40.5, 80.1 47.4, 80.2 53.0 Z" fill="#2f6e38" stroke="#16131f" stroke-width="2.5" stroke-linejoin="round"/><path d="M 60.2 47.1 C 60.3 49.8, 57.9 53.8, 55.6 55.5 C 53.4 57.2, 49.3 57.9, 46.6 57.3 C 44.0 56.6, 41.1 54.0, 39.7 51.5 C 38.4 49.0, 37.5 44.6, 38.7 42.1 C 39.8 39.6, 43.7 36.8, 46.5 36.4 C 49.2 35.9, 52.8 37.6, 55.1 39.3 C 57.4 41.1, 60.2 44.4, 60.2 47.1 Z" fill="#69b85a" opacity="0.55"/><circle cx="46.5" cy="46.6" r="1.6" fill="#69b85a" opacity="0.7"/><circle cx="48.9" cy="49.7" r="1.6" fill="#69b85a" opacity="0.7"/><path d="M 84.0 64.0 C 84.0 68.2, 80.1 73.6, 76.8 76.8 C 73.4 79.9, 68.2 82.8, 64.0 82.7 C 59.8 82.6, 55.2 79.3, 51.8 76.2 C 48.4 73.1, 43.9 68.5, 43.5 64.0 C 43.1 59.5, 45.9 52.3, 49.4 49.4 C 52.8 46.4, 59.5 45.8, 64.0 46.1 C 68.5 46.4, 73.3 48.4, 76.6 51.4 C 80.0 54.4, 83.9 59.8, 84.0 64.0 Z" fill="#4f9a4a" stroke="#16131f" stroke-width="2.5" stroke-linejoin="round"/><path d="M 70.0 59.2 C 70.0 61.7, 67.9 65.1, 66.0 66.5 C 64.0 67.9, 60.4 68.2, 58.3 67.6 C 56.2 66.9, 54.0 64.5, 53.2 62.6 C 52.4 60.7, 52.6 57.9, 53.5 56.0 C 54.3 54.1, 56.2 51.7, 58.3 51.1 C 60.4 50.4, 64.0 50.6, 66.0 52.0 C 67.9 53.4, 70.0 56.8, 70.0 59.2 Z" fill="#69b85a" opacity="0.55"/><circle cx="59.7" cy="69.7" r="1.6" fill="#69b85a" opacity="0.7"/><circle cx="70.7" cy="70.9" r="1.6" fill="#69b85a" opacity="0.7"/><path d="M 68.1 68.3 C 68.1 72.5, 65.0 78.4, 61.9 81.0 C 58.7 83.6, 53.2 84.1, 49.2 83.9 C 45.1 83.7, 40.8 82.4, 37.7 79.8 C 34.6 77.2, 30.8 72.5, 30.5 68.3 C 30.1 64.1, 32.4 57.1, 35.5 54.6 C 38.6 52.1, 44.7 53.0, 49.2 53.1 C 53.6 53.3, 58.9 52.8, 62.1 55.3 C 65.2 57.9, 68.1 64.0, 68.1 68.3 Z" fill="#4f9a4a" stroke="#16131f" stroke-width="2.5" stroke-linejoin="round"/><path d="M 53.3 63.9 C 53.2 65.9, 51.7 68.1, 50.1 69.5 C 48.6 70.9, 45.7 72.7, 43.8 72.3 C 41.9 72.0, 39.2 69.3, 38.5 67.4 C 37.8 65.5, 38.6 62.9, 39.5 60.9 C 40.4 59.0, 42.0 56.2, 43.8 55.7 C 45.7 55.2, 49.1 56.4, 50.6 57.8 C 52.2 59.1, 53.4 62.0, 53.3 63.9 Z" fill="#69b85a" opacity="0.55"/><circle cx="51.7" cy="66.5" r="1.6" fill="#69b85a" opacity="0.7"/><circle cx="47.6" cy="73.8" r="1.6" fill="#69b85a" opacity="0.7"/><path d="M 67.7 77.2 C 67.6 81.6, 63.1 86.7, 59.6 90.1 C 56.1 93.4, 51.1 97.2, 46.7 97.3 C 42.4 97.4, 36.3 94.1, 33.2 90.8 C 30.2 87.4, 29.0 82.1, 28.6 77.2 C 28.3 72.4, 28.0 64.7, 31.1 61.6 C 34.1 58.4, 42.0 58.0, 46.7 58.4 C 51.5 58.9, 56.3 61.1, 59.8 64.2 C 63.3 67.3, 67.7 72.9, 67.7 77.2 Z" fill="#2f6e38" stroke="#16131f" stroke-width="2.5" stroke-linejoin="round"/><path d="M 50.9 72.1 C 51.0 74.7, 51.0 78.7, 49.2 80.4 C 47.5 82.0, 42.9 82.8, 40.4 82.1 C 37.9 81.4, 35.5 78.5, 34.4 76.1 C 33.2 73.7, 32.4 69.8, 33.5 67.7 C 34.5 65.6, 38.2 64.2, 40.7 63.7 C 43.3 63.2, 46.9 63.3, 48.6 64.7 C 50.3 66.1, 50.8 69.5, 50.9 72.1 Z" fill="#69b85a" opacity="0.55"/><circle cx="48.0" cy="83.6" r="1.6" fill="#69b85a" opacity="0.7"/><circle cx="52.3" cy="81.0" r="1.6" fill="#69b85a" opacity="0.7"/><path d="M 91.5 77.3 C 92.0 82.5, 89.0 90.4, 85.1 94.2 C 81.2 97.9, 73.5 100.1, 68.2 99.8 C 62.9 99.5, 57.0 96.0, 53.2 92.3 C 49.4 88.5, 45.4 82.5, 45.2 77.3 C 45.1 72.1, 48.2 64.8, 52.1 61.2 C 55.9 57.6, 63.1 55.3, 68.2 55.6 C 73.2 55.9, 78.4 59.5, 82.3 63.2 C 86.2 66.8, 91.1 72.1, 91.5 77.3 Z" fill="#2f6e38" stroke="#16131f" stroke-width="2.5" stroke-linejoin="round"/><path d="M 75.2 71.6 C 75.0 74.4, 72.3 78.1, 70.0 79.6 C 67.7 81.1, 64.2 81.2, 61.6 80.5 C 59.1 79.9, 55.9 78.1, 54.8 75.9 C 53.8 73.7, 54.2 70.1, 55.3 67.6 C 56.3 65.1, 58.7 61.8, 61.3 61.1 C 63.8 60.3, 68.3 61.1, 70.7 62.9 C 73.0 64.7, 75.3 68.9, 75.2 71.6 Z" fill="#69b85a" opacity="0.55"/><circle cx="72.8" cy="75.3" r="1.6" fill="#69b85a" opacity="0.7"/><circle cx="72.5" cy="69.9" r="1.6" fill="#69b85a" opacity="0.7"/></svg>