<svg xmlns="http://www.w3.org/2000/svg" width="128" height="128" viewBox="0 0 128 128">
  <defs>
    <radialGradient id="shadow" cx="50%" cy="74%" r="52%">
      <stop offset="0%" stop-color="#000" stop-opacity="0.2"/><stop offset="100%" stop-color="#000" stop-opacity="0"/>
    </radialGradient>
  </defs>
  <ellipse cx="64" cy="100" rx="50" ry="12" fill="url(#shadow)"/>
  <!-- fern bush base -->
  <path d="M28 82 C22 68 28 54 42 48 C56 42 72 44 84 50 C98 56 106 68 100 82 C94 94 80 100 62 100 C44 100 34 94 28 82Z" fill="#185512" opacity="0.85"/>
  <!-- fern fronds radiating -->
  <g fill="#207018" stroke="#0e3808" stroke-width="0.7">
    <path d="M40 96 C34 78 36 58 44 46 C46 64 48 82 50 96Z"/>
    <path d="M56 98 C52 78 52 56 58 42 C62 62 62 82 64 98Z"/>
    <path d="M72 98 C70 78 72 56 78 44 C78 64 78 82 80 98Z"/>
    <path d="M88 96 C86 80 90 62 96 50 C92 66 92 84 92 96Z"/>
  </g>
  <!-- frond leaflets (highlights) -->
  <g stroke="#3aa028" stroke-width="1.5" opacity="0.6" stroke-linecap="round">
    <path d="M44 60 l-5 -3 M44 60 l5 -3"/>
    <path d="M58 56 l-5 -3 M58 56 l5 -3"/>
    <path d="M78 58 l-5 -3 M78 58 l5 -3"/>
  </g>
  <!-- undergrowth leaf -->
  <ellipse cx="48" cy="88" rx="14" ry="5" transform="rotate(-20 48 88)" fill="#2a8a1a" opacity="0.7"/>
  <ellipse cx="82" cy="86" rx="16" ry="5" transform="rotate(18 82 86)" fill="#2a8a1a" opacity="0.7"/>
  <!-- small flowers -->
  <circle cx="62" cy="78" r="2.5" fill="#ff70b0"/><circle cx="62" cy="78" r="1" fill="#fff0a0"/>
</svg>
