<svg xmlns="http://www.w3.org/2000/svg" width="128" height="128" viewBox="0 0 128 128">
  <defs>
    <linearGradient id="bg" x1="0%" y1="0%" x2="0%" y2="100%">
      <stop offset="0%" stop-color="#0e3a0a"/><stop offset="100%" stop-color="#1a5a14"/>
    </linearGradient>
  </defs>
  <rect width="128" height="128" fill="url(#bg)" rx="8"/>
  <!-- bamboo stalks -->
  <g fill="#3a7a28" stroke="#1e4a14" stroke-width="1.5">
    <rect x="8" y="0" width="10" height="128" rx="3"/>
    <rect x="28" y="10" width="8" height="118" rx="3"/>
    <rect x="50" y="0" width="10" height="128" rx="3"/>
    <rect x="72" y="5" width="9" height="123" rx="3"/>
    <rect x="95" y="0" width="10" height="128" rx="3"/>
    <rect x="115" y="8" width="9" height="120" rx="3"/>
  </g>
  <!-- bamboo joints -->
  <g fill="#2a5a1c" stroke="#1e4a14" stroke-width="1">
    <rect x="7" y="20" width="12" height="3" rx="1"/>
    <rect x="7" y="45" width="12" height="3" rx="1"/>
    <rect x="7" y="70" width="12" height="3" rx="1"/>
    <rect x="7" y="95" width="12" height="3" rx="1"/>
    <rect x="49" y="28" width="12" height="3" rx="1"/>
    <rect x="49" y="55" width="12" height="3" rx="1"/>
    <rect x="49" y="82" width="12" height="3" rx="1"/>
    <rect x="49" y="108" width="12" height="3" rx="1"/>
    <rect x="94" y="22" width="12" height="3" rx="1"/>
    <rect x="94" y="50" width="12" height="3" rx="1"/>
    <rect x="94" y="78" width="12" height="3" rx="1"/>
    <rect x="94" y="105" width="12" height="3" rx="1"/>
  </g>
  <!-- bamboo leaf sprays -->
  <g fill="#4aaa2e" stroke="#2a6a18" stroke-width="0.8">
    <path d="M18 42 Q30 35 40 38 Q30 42 18 42Z"/>
    <path d="M18 42 Q28 50 35 55 Q25 50 18 42Z"/>
    <path d="M60 65 Q72 58 82 61 Q72 65 60 65Z"/>
    <path d="M60 65 Q70 73 77 78 Q67 73 60 65Z"/>
    <path d="M105 48 Q117 41 125 44 Q117 48 105 48Z"/>
  </g>
  <!-- filtered light -->
  <g fill="#6ae040" opacity="0.15">
    <rect x="19" y="0" width="8" height="128"/>
    <rect x="61" y="0" width="10" height="128"/>
    <rect x="106" y="0" width="8" height="128"/>
  </g>
</svg>
