<svg xmlns="http://www.w3.org/2000/svg" width="128" height="128" viewBox="0 0 128 128"><ellipse cx="64.0" cy="91.5" rx="47.5" ry="19.0" fill="#000000" opacity="0.22"/><path d="M 97.6 47.0 C 97.7 52.5, 98.1 60.1, 94.9 63.9 C 91.6 67.6, 83.5 69.7, 78.0 69.6 C 72.5 69.4, 65.2 66.8, 61.9 63.0 C 58.7 59.2, 58.6 52.4, 58.5 47.0 C 58.4 41.5, 58.1 34.2, 61.4 30.4 C 64.6 26.6, 72.5 24.2, 78.0 24.2 C 83.4 24.3, 90.8 27.0, 94.1 30.8 C 97.4 34.6, 97.5 41.5, 97.6 47.0 Z" fill="#4f9a4a" stroke="#16131f" stroke-width="2.5" stroke-linejoin="round"/><path d="M 82.2 41.6 C 82.4 44.2, 82.2 48.7, 80.4 50.1 C 78.7 51.4, 74.6 50.3, 71.9 49.7 C 69.1 49.1, 65.1 48.4, 63.9 46.3 C 62.8 44.3, 63.8 40.0, 65.0 37.4 C 66.2 34.9, 68.9 31.5, 71.3 31.0 C 73.7 30.5, 77.6 32.7, 79.4 34.5 C 81.2 36.3, 82.0 39.0, 82.2 41.6 Z" fill="#69b85a" opacity="0.55"/><circle cx="83.9" cy="41.5" r="1.6" fill="#69b85a" opacity="0.7"/><circle cx="81.4" cy="44.2" r="1.6" fill="#69b85a" opacity="0.7"/><path d="M 63.7 48.8 C 64.0 53.0, 63.4 59.5, 60.6 62.2 C 57.9 65.0, 51.4 65.6, 47.2 65.4 C 43.0 65.1, 38.6 63.4, 35.4 60.7 C 32.1 57.9, 28.1 53.0, 27.8 48.8 C 27.6 44.6, 30.6 38.3, 33.9 35.5 C 37.1 32.7, 43.0 31.6, 47.2 31.9 C 51.4 32.2, 56.1 34.4, 58.8 37.2 C 61.6 40.0, 63.4 44.7, 63.7 48.8 Z" fill="#1d4a26" stroke="#16131f" stroke-width="2.5" stroke-linejoin="round"/><path d="M 51.2 44.3 C 51.2 46.6, 50.6 49.9, 49.1 51.2 C 47.5 52.4, 43.9 52.4, 41.9 51.8 C 39.9 51.1, 38.1 49.3, 37.1 47.4 C 36.2 45.6, 35.3 42.4, 36.1 40.7 C 36.9 39.0, 39.9 37.9, 42.0 37.4 C 44.1 36.8, 47.4 36.5, 48.9 37.6 C 50.5 38.8, 51.2 42.0, 51.2 44.3 Z" fill="#69b85a" opacity="0.55"/><circle cx="42.6" cy="45.0" r="1.6" fill="#69b85a" opacity="0.7"/><circle cx="42.2" cy="51.9" r="1.6" fill="#69b85a" opacity="0.7"/><path d="M 80.6 64.0 C 80.6 67.7, 78.1 72.1, 75.3 75.3 C 72.6 78.5, 68.0 82.9, 64.0 83.1 C 60.0 83.3, 54.4 79.6, 51.6 76.4 C 48.8 73.2, 47.2 68.0, 47.3 64.0 C 47.3 60.0, 49.4 54.9, 52.2 52.2 C 55.0 49.5, 60.2 47.7, 64.0 47.8 C 67.8 48.0, 72.1 50.5, 74.8 53.2 C 77.6 55.9, 80.5 60.3, 80.6 64.0 Z" fill="#4f9a4a" stroke="#16131f" stroke-width="2.5" stroke-linejoin="round"/><path d="M 67.2 59.6 C 67.3 61.8, 67.5 65.5, 66.1 66.6 C 64.7 67.8, 60.9 67.1, 59.0 66.4 C 57.0 65.7, 55.2 64.3, 54.3 62.6 C 53.5 61.0, 53.2 58.4, 53.9 56.5 C 54.6 54.6, 56.6 51.6, 58.6 51.1 C 60.5 50.6, 64.0 52.0, 65.4 53.5 C 66.9 54.9, 67.1 57.4, 67.2 59.6 Z" fill="#69b85a" opacity="0.55"/><circle cx="70.2" cy="69.5" r="1.6" fill="#69b85a" opacity="0.7"/><circle cx="66.4" cy="70.2" r="1.6" fill="#69b85a" opacity="0.7"/><path d="M 69.4 69.5 C 69.5 75.0, 64.7 81.7, 60.5 86.0 C 56.2 90.4, 49.9 95.3, 44.0 95.8 C 38.0 96.2, 29.0 93.0, 24.8 88.7 C 20.7 84.3, 19.0 76.0, 18.9 69.5 C 18.8 63.0, 20.1 54.0, 24.3 49.8 C 28.4 45.6, 38.0 43.5, 44.0 44.1 C 49.9 44.7, 55.8 49.2, 60.1 53.4 C 64.3 57.7, 69.4 64.1, 69.4 69.5 Z" fill="#2f6e38" stroke="#16131f" stroke-width="2.5" stroke-linejoin="round"/><path d="M 50.5 63.3 C 50.2 66.3, 47.7 69.4, 45.4 71.3 C 43.1 73.2, 39.3 75.0, 36.4 74.6 C 33.6 74.1, 29.5 71.2, 28.2 68.5 C 27.0 65.8, 27.6 61.1, 29.0 58.5 C 30.4 55.9, 33.6 53.7, 36.6 52.9 C 39.6 52.0, 44.6 51.6, 46.9 53.4 C 49.2 55.1, 50.7 60.3, 50.5 63.3 Z" fill="#69b85a" opacity="0.55"/><circle cx="40.4" cy="75.1" r="1.6" fill="#69b85a" opacity="0.7"/><circle cx="35.5" cy="77.2" r="1.6" fill="#69b85a" opacity="0.7"/><path d="M 85.0 77.1 C 85.4 82.0, 82.4 89.5, 78.7 92.8 C 75.0 96.0, 68.1 97.0, 63.1 96.8 C 58.0 96.6, 52.0 94.9, 48.6 91.6 C 45.2 88.3, 42.7 81.9, 42.8 77.1 C 42.8 72.3, 45.5 66.6, 48.9 62.9 C 52.3 59.3, 58.5 54.9, 63.1 55.0 C 67.7 55.1, 72.8 60.0, 76.5 63.7 C 80.1 67.4, 84.7 72.3, 85.0 77.1 Z" fill="#4f9a4a" stroke="#16131f" stroke-width="2.5" stroke-linejoin="round"/><path d="M 67.6 71.9 C 67.9 74.3, 67.2 78.6, 65.4 80.1 C 63.6 81.6, 59.5 81.7, 56.8 81.1 C 54.1 80.5, 50.4 78.8, 49.2 76.6 C 48.0 74.3, 48.5 69.8, 49.7 67.5 C 51.0 65.2, 54.5 63.4, 56.9 63.0 C 59.2 62.7, 62.1 64.2, 63.9 65.6 C 65.7 67.1, 67.4 69.5, 67.6 71.9 Z" fill="#69b85a" opacity="0.55"/><circle cx="69.3" cy="85.1" r="1.6" fill="#69b85a" opacity="0.7"/><circle cx="65.7" cy="84.5" r="1.6" fill="#69b85a" opacity="0.7"/></svg>