<svg xmlns="http://www.w3.org/2000/svg" width="128" height="128" viewBox="0 0 128 128"><ellipse cx="64.0" cy="89.0" rx="47.5" ry="19.0" fill="#000000" opacity="0.22"/><path d="M 116.3 64.0 C 116.5 75.1, 111.5 89.4, 104.3 97.8 C 97.0 106.2, 84.0 112.3, 72.9 114.3 C 61.8 116.3, 47.6 114.9, 37.6 109.7 C 27.7 104.4, 15.8 92.7, 13.1 82.5 C 10.4 72.3, 17.5 59.4, 21.4 48.5 C 25.4 37.5, 28.0 23.4, 36.8 16.8 C 45.5 10.2, 62.7 6.6, 73.7 9.0 C 84.7 11.4, 96.0 22.1, 103.0 31.2 C 110.1 40.4, 116.1 52.9, 116.3 64.0 Z" fill="#3a2a26" stroke="#16131f" stroke-width="3" stroke-linejoin="round"/><path d="M 81.3 59.0 C 81.0 65.3, 77.3 72.0, 72.9 76.9 C 68.5 81.8, 60.8 88.6, 55.0 88.5 C 49.2 88.4, 42.2 81.1, 37.9 76.1 C 33.5 71.2, 29.9 65.5, 29.1 59.0 C 28.3 52.5, 28.9 42.3, 33.2 37.2 C 37.5 32.1, 48.1 28.2, 55.0 28.6 C 61.9 28.9, 70.4 34.1, 74.8 39.2 C 79.2 44.3, 81.7 52.7, 81.3 59.0 Z" fill="#241915" opacity="0.85"/><line x1="68.9" y1="62.9" x2="81.5" y2="58.1" stroke="#ff7a1e" stroke-width="3.2" stroke-linecap="round"/><line x1="68.9" y1="62.9" x2="81.5" y2="58.1" stroke="#ffd24a" stroke-width="1.3" stroke-linecap="round"/><line x1="81.5" y1="58.1" x2="94.7" y2="57.4" stroke="#ff7a1e" stroke-width="3.2" stroke-linecap="round"/><line x1="81.5" y1="58.1" x2="94.7" y2="57.4" stroke="#ffd24a" stroke-width="1.3" stroke-linecap="round"/><line x1="94.7" y1="57.4" x2="106.9" y2="50.8" stroke="#ff7a1e" stroke-width="3.2" stroke-linecap="round"/><line x1="94.7" y1="57.4" x2="106.9" y2="50.8" stroke="#ffd24a" stroke-width="1.3" stroke-linecap="round"/><line x1="63.7" y1="69.0" x2="64.8" y2="81.4" stroke="#ff7a1e" stroke-width="3.2" stroke-linecap="round"/><line x1="63.7" y1="69.0" x2="64.8" y2="81.4" stroke="#ffd24a" stroke-width="1.3" stroke-linecap="round"/><line x1="64.8" y1="81.4" x2="69.8" y2="94.2" stroke="#ff7a1e" stroke-width="3.2" stroke-linecap="round"/><line x1="64.8" y1="81.4" x2="69.8" y2="94.2" stroke="#ffd24a" stroke-width="1.3" stroke-linecap="round"/><line x1="69.8" y1="94.2" x2="74.8" y2="103.2" stroke="#ff7a1e" stroke-width="3.2" stroke-linecap="round"/><line x1="69.8" y1="94.2" x2="74.8" y2="103.2" stroke="#ffd24a" stroke-width="1.3" stroke-linecap="round"/><line x1="59.2" y1="62.7" x2="48.9" y2="62.0" stroke="#ff7a1e" stroke-width="3.2" stroke-linecap="round"/><line x1="59.2" y1="62.7" x2="48.9" y2="62.0" stroke="#ffd24a" stroke-width="1.3" stroke-linecap="round"/><line x1="48.9" y1="62.0" x2="38.6" y2="64.4" stroke="#ff7a1e" stroke-width="3.2" stroke-linecap="round"/><line x1="48.9" y1="62.0" x2="38.6" y2="64.4" stroke="#ffd24a" stroke-width="1.3" stroke-linecap="round"/><line x1="38.6" y1="64.4" x2="28.1" y2="72.0" stroke="#ff7a1e" stroke-width="3.2" stroke-linecap="round"/><line x1="38.6" y1="64.4" x2="28.1" y2="72.0" stroke="#ffd24a" stroke-width="1.3" stroke-linecap="round"/><line x1="65.1" y1="59.1" x2="66.0" y2="46.7" stroke="#ff7a1e" stroke-width="3.2" stroke-linecap="round"/><line x1="65.1" y1="59.1" x2="66.0" y2="46.7" stroke="#ffd24a" stroke-width="1.3" stroke-linecap="round"/><line x1="66.0" y1="46.7" x2="72.0" y2="35.4" stroke="#ff7a1e" stroke-width="3.2" stroke-linecap="round"/><line x1="66.0" y1="46.7" x2="72.0" y2="35.4" stroke="#ffd24a" stroke-width="1.3" stroke-linecap="round"/><line x1="72.0" y1="35.4" x2="73.5" y2="23.5" stroke="#ff7a1e" stroke-width="3.2" stroke-linecap="round"/><line x1="72.0" y1="35.4" x2="73.5" y2="23.5" stroke="#ffd24a" stroke-width="1.3" stroke-linecap="round"/><circle cx="81.9" cy="47.2" r="7.7" fill="#ff7a1e"/><circle cx="81.9" cy="47.2" r="4.2" fill="#ffd24a"/><circle cx="79.9" cy="74.9" r="9.1" fill="#ff7a1e"/><circle cx="79.9" cy="74.9" r="5.0" fill="#ffd24a"/><circle cx="45.1" cy="60.0" r="1.3" fill="#ffd24a" opacity="0.9"/><circle cx="51.1" cy="46.7" r="1.3" fill="#ffd24a" opacity="0.9"/><circle cx="59.8" cy="45.5" r="1.3" fill="#ffd24a" opacity="0.9"/><circle cx="45.1" cy="71.4" r="1.3" fill="#ffd24a" opacity="0.9"/></svg>