<svg xmlns="http://www.w3.org/2000/svg" width="128" height="128" viewBox="0 0 128 128"><ellipse cx="64.0" cy="89.0" rx="47.5" ry="19.0" fill="#000000" opacity="0.22"/><path d="M 118.7 64.0 C 120.2 74.7, 114.2 90.9, 106.7 99.8 C 99.1 108.7, 84.8 115.9, 73.4 117.3 C 62.0 118.8, 48.2 114.4, 38.3 108.5 C 28.3 102.7, 17.8 92.8, 13.7 82.3 C 9.5 71.8, 9.4 56.4, 13.3 45.5 C 17.1 34.6, 26.8 22.3, 36.8 16.8 C 46.7 11.3, 62.9 9.2, 73.1 12.3 C 83.3 15.5, 90.1 27.1, 97.7 35.7 C 105.3 44.3, 117.3 53.3, 118.7 64.0 Z" fill="#3a2a26" stroke="#16131f" stroke-width="3" stroke-linejoin="round"/><path d="M 85.2 59.0 C 85.8 65.7, 82.1 76.1, 77.1 81.1 C 72.0 86.1, 62.2 89.1, 55.0 89.0 C 47.8 88.8, 38.1 85.3, 33.7 80.3 C 29.2 75.4, 27.8 65.4, 28.5 59.0 C 29.2 52.6, 33.4 45.9, 37.8 41.8 C 42.2 37.8, 49.1 34.8, 55.0 34.7 C 60.9 34.5, 68.2 36.7, 73.3 40.7 C 78.3 44.8, 84.5 52.3, 85.2 59.0 Z" fill="#241915" opacity="0.85"/><line x1="68.8" y1="62.6" x2="78.3" y2="63.1" stroke="#ff7a1e" stroke-width="3.2" stroke-linecap="round"/><line x1="68.8" y1="62.6" x2="78.3" y2="63.1" stroke="#ffd24a" stroke-width="1.3" stroke-linecap="round"/><line x1="78.3" y1="63.1" x2="91.2" y2="65.0" stroke="#ff7a1e" stroke-width="3.2" stroke-linecap="round"/><line x1="78.3" y1="63.1" x2="91.2" y2="65.0" stroke="#ffd24a" stroke-width="1.3" stroke-linecap="round"/><line x1="91.2" y1="65.0" x2="103.9" y2="62.5" stroke="#ff7a1e" stroke-width="3.2" stroke-linecap="round"/><line x1="91.2" y1="65.0" x2="103.9" y2="62.5" stroke="#ffd24a" stroke-width="1.3" stroke-linecap="round"/><line x1="66.4" y1="68.4" x2="68.5" y2="79.5" stroke="#ff7a1e" stroke-width="3.2" stroke-linecap="round"/><line x1="66.4" y1="68.4" x2="68.5" y2="79.5" stroke="#ffd24a" stroke-width="1.3" stroke-linecap="round"/><line x1="68.5" y1="79.5" x2="70.0" y2="90.7" stroke="#ff7a1e" stroke-width="3.2" stroke-linecap="round"/><line x1="68.5" y1="79.5" x2="70.0" y2="90.7" stroke="#ffd24a" stroke-width="1.3" stroke-linecap="round"/><line x1="70.0" y1="90.7" x2="67.0" y2="104.3" stroke="#ff7a1e" stroke-width="3.2" stroke-linecap="round"/><line x1="70.0" y1="90.7" x2="67.0" y2="104.3" stroke="#ffd24a" stroke-width="1.3" stroke-linecap="round"/><line x1="61.6" y1="68.4" x2="54.8" y2="80.7" stroke="#ff7a1e" stroke-width="3.2" stroke-linecap="round"/><line x1="61.6" y1="68.4" x2="54.8" y2="80.7" stroke="#ffd24a" stroke-width="1.3" stroke-linecap="round"/><line x1="54.8" y1="80.7" x2="47.4" y2="91.5" stroke="#ff7a1e" stroke-width="3.2" stroke-linecap="round"/><line x1="54.8" y1="80.7" x2="47.4" y2="91.5" stroke="#ffd24a" stroke-width="1.3" stroke-linecap="round"/><line x1="47.4" y1="91.5" x2="36.8" y2="99.6" stroke="#ff7a1e" stroke-width="3.2" stroke-linecap="round"/><line x1="47.4" y1="91.5" x2="36.8" y2="99.6" stroke="#ffd24a" stroke-width="1.3" stroke-linecap="round"/><line x1="59.2" y1="62.6" x2="46.6" y2="54.8" stroke="#ff7a1e" stroke-width="3.2" stroke-linecap="round"/><line x1="59.2" y1="62.6" x2="46.6" y2="54.8" stroke="#ffd24a" stroke-width="1.3" stroke-linecap="round"/><line x1="46.6" y1="54.8" x2="33.4" y2="51.6" stroke="#ff7a1e" stroke-width="3.2" stroke-linecap="round"/><line x1="46.6" y1="54.8" x2="33.4" y2="51.6" stroke="#ffd24a" stroke-width="1.3" stroke-linecap="round"/><line x1="33.4" y1="51.6" x2="22.0" y2="46.5" stroke="#ff7a1e" stroke-width="3.2" stroke-linecap="round"/><line x1="33.4" y1="51.6" x2="22.0" y2="46.5" stroke="#ffd24a" stroke-width="1.3" stroke-linecap="round"/><line x1="62.2" y1="59.3" x2="55.6" y2="48.9" stroke="#ff7a1e" stroke-width="3.2" stroke-linecap="round"/><line x1="62.2" y1="59.3" x2="55.6" y2="48.9" stroke="#ffd24a" stroke-width="1.3" stroke-linecap="round"/><line x1="55.6" y1="48.9" x2="46.4" y2="41.7" stroke="#ff7a1e" stroke-width="3.2" stroke-linecap="round"/><line x1="55.6" y1="48.9" x2="46.4" y2="41.7" stroke="#ffd24a" stroke-width="1.3" stroke-linecap="round"/><line x1="46.4" y1="41.7" x2="38.3" y2="33.7" stroke="#ff7a1e" stroke-width="3.2" stroke-linecap="round"/><line x1="46.4" y1="41.7" x2="38.3" y2="33.7" stroke="#ffd24a" stroke-width="1.3" stroke-linecap="round"/><line x1="66.1" y1="59.4" x2="71.6" y2="52.2" stroke="#ff7a1e" stroke-width="3.2" stroke-linecap="round"/><line x1="66.1" y1="59.4" x2="71.6" y2="52.2" stroke="#ffd24a" stroke-width="1.3" stroke-linecap="round"/><line x1="71.6" y1="52.2" x2="79.3" y2="41.3" stroke="#ff7a1e" stroke-width="3.2" stroke-linecap="round"/><line x1="71.6" y1="52.2" x2="79.3" y2="41.3" stroke="#ffd24a" stroke-width="1.3" stroke-linecap="round"/><line x1="79.3" y1="41.3" x2="85.7" y2="32.2" stroke="#ff7a1e" stroke-width="3.2" stroke-linecap="round"/><line x1="79.3" y1="41.3" x2="85.7" y2="32.2" stroke="#ffd24a" stroke-width="1.3" stroke-linecap="round"/><circle cx="58.4" cy="72.6" r="8.8" fill="#ff7a1e"/><circle cx="58.4" cy="72.6" r="4.8" fill="#ffd24a"/><circle cx="55.5" cy="48.0" r="7.7" fill="#ff7a1e"/><circle cx="55.5" cy="48.0" r="4.3" fill="#ffd24a"/><circle cx="63.4" cy="72.9" r="6.5" fill="#ff7a1e"/><circle cx="63.4" cy="72.9" r="3.6" fill="#ffd24a"/><circle cx="69.9" cy="50.3" r="1.3" fill="#ffd24a" opacity="0.9"/><circle cx="67.1" cy="63.7" r="1.3" fill="#ffd24a" opacity="0.9"/><circle cx="47.9" cy="60.5" r="1.3" fill="#ffd24a" opacity="0.9"/><circle cx="71.0" cy="47.5" r="1.3" fill="#ffd24a" opacity="0.9"/></svg>