<svg xmlns="http://www.w3.org/2000/svg" width="128" height="128" viewBox="0 0 128 128"><ellipse cx="64.0" cy="89.0" rx="47.5" ry="19.0" fill="#000000" opacity="0.22"/><path d="M 109.0 64.0 C 110.0 74.5, 110.6 90.3, 104.4 97.9 C 98.2 105.4, 83.1 107.2, 72.0 109.3 C 60.8 111.3, 46.1 114.9, 37.4 110.1 C 28.7 105.2, 23.7 90.8, 19.8 80.1 C 16.0 69.4, 11.4 56.3, 14.2 45.9 C 17.1 35.4, 27.5 21.9, 37.1 17.4 C 46.7 12.9, 61.7 16.0, 71.9 19.0 C 82.2 21.9, 92.4 27.5, 98.6 35.0 C 104.8 42.5, 108.1 53.5, 109.0 64.0 Z" fill="#3a2a26" stroke="#16131f" stroke-width="3" stroke-linejoin="round"/><path d="M 85.9 59.0 C 86.0 66.0, 81.5 75.2, 76.3 80.3 C 71.1 85.4, 62.0 89.6, 55.0 89.5 C 48.0 89.5, 38.3 85.0, 34.1 79.9 C 29.8 74.9, 28.9 65.5, 29.4 59.0 C 29.9 52.5, 32.8 45.2, 37.0 41.0 C 41.3 36.9, 48.5 34.7, 55.0 34.2 C 61.5 33.7, 70.8 33.9, 75.9 38.1 C 81.1 42.2, 85.9 52.0, 85.9 59.0 Z" fill="#241915" opacity="0.85"/><line x1="69.0" y1="64.4" x2="77.4" y2="68.9" stroke="#ff7a1e" stroke-width="3.2" stroke-linecap="round"/><line x1="69.0" y1="64.4" x2="77.4" y2="68.9" stroke="#ffd24a" stroke-width="1.3" stroke-linecap="round"/><line x1="77.4" y1="68.9" x2="86.1" y2="77.7" stroke="#ff7a1e" stroke-width="3.2" stroke-linecap="round"/><line x1="77.4" y1="68.9" x2="86.1" y2="77.7" stroke="#ffd24a" stroke-width="1.3" stroke-linecap="round"/><line x1="86.1" y1="77.7" x2="94.6" y2="81.3" stroke="#ff7a1e" stroke-width="3.2" stroke-linecap="round"/><line x1="86.1" y1="77.7" x2="94.6" y2="81.3" stroke="#ffd24a" stroke-width="1.3" stroke-linecap="round"/><line x1="66.7" y1="68.2" x2="78.9" y2="75.8" stroke="#ff7a1e" stroke-width="3.2" stroke-linecap="round"/><line x1="66.7" y1="68.2" x2="78.9" y2="75.8" stroke="#ffd24a" stroke-width="1.3" stroke-linecap="round"/><line x1="78.9" y1="75.8" x2="85.9" y2="84.0" stroke="#ff7a1e" stroke-width="3.2" stroke-linecap="round"/><line x1="78.9" y1="75.8" x2="85.9" y2="84.0" stroke="#ffd24a" stroke-width="1.3" stroke-linecap="round"/><line x1="85.9" y1="84.0" x2="97.3" y2="93.1" stroke="#ff7a1e" stroke-width="3.2" stroke-linecap="round"/><line x1="85.9" y1="84.0" x2="97.3" y2="93.1" stroke="#ffd24a" stroke-width="1.3" stroke-linecap="round"/><line x1="62.6" y1="68.8" x2="65.1" y2="80.9" stroke="#ff7a1e" stroke-width="3.2" stroke-linecap="round"/><line x1="62.6" y1="68.8" x2="65.1" y2="80.9" stroke="#ffd24a" stroke-width="1.3" stroke-linecap="round"/><line x1="65.1" y1="80.9" x2="64.2" y2="90.0" stroke="#ff7a1e" stroke-width="3.2" stroke-linecap="round"/><line x1="65.1" y1="80.9" x2="64.2" y2="90.0" stroke="#ffd24a" stroke-width="1.3" stroke-linecap="round"/><line x1="64.2" y1="90.0" x2="66.7" y2="99.2" stroke="#ff7a1e" stroke-width="3.2" stroke-linecap="round"/><line x1="64.2" y1="90.0" x2="66.7" y2="99.2" stroke="#ffd24a" stroke-width="1.3" stroke-linecap="round"/><line x1="59.1" y1="63.3" x2="47.7" y2="56.1" stroke="#ff7a1e" stroke-width="3.2" stroke-linecap="round"/><line x1="59.1" y1="63.3" x2="47.7" y2="56.1" stroke="#ffd24a" stroke-width="1.3" stroke-linecap="round"/><line x1="47.7" y1="56.1" x2="40.5" y2="45.8" stroke="#ff7a1e" stroke-width="3.2" stroke-linecap="round"/><line x1="47.7" y1="56.1" x2="40.5" y2="45.8" stroke="#ffd24a" stroke-width="1.3" stroke-linecap="round"/><line x1="40.5" y1="45.8" x2="36.1" y2="33.5" stroke="#ff7a1e" stroke-width="3.2" stroke-linecap="round"/><line x1="40.5" y1="45.8" x2="36.1" y2="33.5" stroke="#ffd24a" stroke-width="1.3" stroke-linecap="round"/><line x1="60.4" y1="60.5" x2="52.9" y2="52.4" stroke="#ff7a1e" stroke-width="3.2" stroke-linecap="round"/><line x1="60.4" y1="60.5" x2="52.9" y2="52.4" stroke="#ffd24a" stroke-width="1.3" stroke-linecap="round"/><line x1="52.9" y1="52.4" x2="46.2" y2="45.6" stroke="#ff7a1e" stroke-width="3.2" stroke-linecap="round"/><line x1="52.9" y1="52.4" x2="46.2" y2="45.6" stroke="#ffd24a" stroke-width="1.3" stroke-linecap="round"/><line x1="46.2" y1="45.6" x2="38.4" y2="33.9" stroke="#ff7a1e" stroke-width="3.2" stroke-linecap="round"/><line x1="46.2" y1="45.6" x2="38.4" y2="33.9" stroke="#ffd24a" stroke-width="1.3" stroke-linecap="round"/><line x1="67.1" y1="60.1" x2="70.3" y2="48.0" stroke="#ff7a1e" stroke-width="3.2" stroke-linecap="round"/><line x1="67.1" y1="60.1" x2="70.3" y2="48.0" stroke="#ffd24a" stroke-width="1.3" stroke-linecap="round"/><line x1="70.3" y1="48.0" x2="70.8" y2="37.0" stroke="#ff7a1e" stroke-width="3.2" stroke-linecap="round"/><line x1="70.3" y1="48.0" x2="70.8" y2="37.0" stroke="#ffd24a" stroke-width="1.3" stroke-linecap="round"/><line x1="70.8" y1="37.0" x2="75.0" y2="28.8" stroke="#ff7a1e" stroke-width="3.2" stroke-linecap="round"/><line x1="70.8" y1="37.0" x2="75.0" y2="28.8" stroke="#ffd24a" stroke-width="1.3" stroke-linecap="round"/><circle cx="62.2" cy="65.2" r="9.4" fill="#ff7a1e"/><circle cx="62.2" cy="65.2" r="5.2" fill="#ffd24a"/><circle cx="67.1" cy="57.3" r="8.4" fill="#ff7a1e"/><circle cx="67.1" cy="57.3" r="4.6" fill="#ffd24a"/><circle cx="63.5" cy="69.4" r="1.3" fill="#ffd24a" opacity="0.9"/><circle cx="75.4" cy="55.0" r="1.3" fill="#ffd24a" opacity="0.9"/><circle cx="39.5" cy="66.7" r="1.3" fill="#ffd24a" opacity="0.9"/><circle cx="86.5" cy="49.9" r="1.3" fill="#ffd24a" opacity="0.9"/></svg>