<svg xmlns="http://www.w3.org/2000/svg" width="128" height="128" viewBox="0 0 128 128"><ellipse cx="64.0" cy="91.5" rx="50.0" ry="20.0" fill="#000000" opacity="0.22"/><path d="M 110.7 69.0 C 110.0 80.6, 104.3 92.9, 96.5 101.5 C 88.8 110.1, 75.5 119.9, 64.0 120.6 C 52.5 121.3, 35.2 114.2, 27.4 105.6 C 19.7 97.0, 17.2 81.0, 17.4 69.0 C 17.7 57.0, 21.0 42.0, 28.7 33.7 C 36.5 25.5, 52.0 20.0, 64.0 19.7 C 76.0 19.4, 93.2 23.8, 101.0 32.0 C 108.8 40.2, 111.5 57.4, 110.7 69.0 Z" fill="#473f39" stroke="#16131f" stroke-width="3" stroke-linejoin="round"/><path d="M 64 41.5 L 36.5 84.0 L 64 79.0 Z" fill="#8d8276" stroke="#16131f" stroke-width="2" stroke-linejoin="round"/><path d="M 64 41.5 L 91.5 84.0 L 64 79.0 Z" fill="#6b5f55" stroke="#16131f" stroke-width="2" stroke-linejoin="round"/><path d="M 64 41.5 L 56.0 52.5 L 61.5 47.5 L 67.0 53.5 L 72.0 48.5 L 64 56.5 Z" fill="#eef2f7" opacity="0.95"/><path d="M 86.5 61.5 L 72.5 81.5 L 100.5 81.5 Z" fill="#9a8f82" stroke="#16131f" stroke-width="2" stroke-linejoin="round"/></svg>