<svg xmlns="http://www.w3.org/2000/svg" width="128" height="128" viewBox="0 0 128 128"><ellipse cx="64.0" cy="91.5" rx="50.0" ry="20.0" fill="#000000" opacity="0.22"/><path d="M 113.8 69.0 C 113.0 81.1, 106.5 94.2, 98.2 103.2 C 89.9 112.2, 75.6 122.8, 64.0 123.0 C 52.4 123.2, 36.2 113.6, 28.4 104.6 C 20.6 95.6, 17.2 81.1, 17.0 69.0 C 16.8 56.9, 19.3 40.4, 27.2 32.2 C 35.0 24.0, 51.4 20.0, 64.0 19.7 C 76.6 19.5, 94.2 22.3, 102.5 30.5 C 110.8 38.7, 114.5 56.9, 113.8 69.0 Z" fill="#473f39" stroke="#16131f" stroke-width="3" stroke-linejoin="round"/><path d="M 64 41.5 L 36.5 84.0 L 64 79.0 Z" fill="#8d8276" stroke="#16131f" stroke-width="2" stroke-linejoin="round"/><path d="M 64 41.5 L 91.5 84.0 L 64 79.0 Z" fill="#6b5f55" stroke="#16131f" stroke-width="2" stroke-linejoin="round"/><path d="M 64 41.5 L 56.0 52.5 L 61.5 47.5 L 67.0 53.5 L 72.0 48.5 L 64 56.5 Z" fill="#eef2f7" opacity="0.95"/><path d="M 86.5 61.5 L 72.5 81.5 L 100.5 81.5 Z" fill="#9a8f82" stroke="#16131f" stroke-width="2" stroke-linejoin="round"/></svg>