<svg xmlns="http://www.w3.org/2000/svg" width="128" height="128" viewBox="0 0 128 128">
  <defs>
    <linearGradient id="bg" x1="0%" y1="0%" x2="0%" y2="100%">
      <stop offset="0%" stop-color="#9090a0"/><stop offset="100%" stop-color="#505060"/>
    </linearGradient>
  </defs>
  <rect width="128" height="128" fill="url(#bg)" rx="8"/>
  <!-- mountain silhouette layers -->
  <path d="M0 128 L20 65 L40 85 L64 30 L88 70 L108 55 L128 80 L128 128Z" fill="#404050"/>
  <path d="M0 128 L25 75 L48 95 L64 40 L80 90 L108 62 L128 88 L128 128Z" fill="#585868"/>
  <path d="M0 128 L30 82 L55 100 L64 50 L73 95 L105 70 L128 95 L128 128Z" fill="#686878"/>
  <!-- snow caps -->
  <path d="M64 30 L55 55 L73 55Z" fill="#e8e8f0" opacity="0.9"/>
  <path d="M108 55 L100 70 L116 70Z" fill="#d8d8e8" opacity="0.8"/>
  <path d="M20 65 L14 78 L26 78Z" fill="#d0d0e0" opacity="0.7"/>
  <!-- rock details/striations -->
  <g stroke="#303040" stroke-width="1" fill="none" opacity="0.5">
    <path d="M40 85 L55 70 L64 50"/><path d="M88 70 L80 85 L95 95"/>
    <path d="M20 90 L35 78 L30 95"/>
  </g>
  <!-- snow sparkle -->
  <g fill="#fff" opacity="0.7">
    <circle cx="62" cy="32" r="1.5"/><circle cx="68" cy="36" r="1"/>
    <circle cx="58" cy="38" r="1"/><circle cx="108" cy="57" r="1.2"/>
    <circle cx="104" cy="60" r="0.8"/>
  </g>
  <!-- ambient sky tint at peaks -->
  <path d="M0 0 L128 0 L128 40 Q64 20 0 40Z" fill="#b0b0d0" opacity="0.15"/>
</svg>
