<svg xmlns="http://www.w3.org/2000/svg" width="128" height="128" viewBox="0 0 128 128"><ellipse cx="64.0" cy="91.5" rx="50.0" ry="20.0" fill="#000000" opacity="0.22"/><path d="M 117.7 69.0 C 117.9 80.2, 107.3 95.2, 98.3 103.3 C 89.4 111.4, 76.1 116.8, 64.0 117.5 C 51.9 118.2, 34.4 115.6, 25.5 107.5 C 16.6 99.4, 9.7 80.8, 10.7 69.0 C 11.7 57.2, 22.7 44.7, 31.5 36.5 C 40.4 28.4, 53.1 20.2, 64.0 20.1 C 74.9 20.1, 88.0 27.9, 97.0 36.0 C 106.0 44.1, 117.5 57.8, 117.7 69.0 Z" fill="#473f39" stroke="#16131f" stroke-width="3" stroke-linejoin="round"/><path d="M 64 41.5 L 36.5 84.0 L 64 79.0 Z" fill="#8d8276" stroke="#16131f" stroke-width="2" stroke-linejoin="round"/><path d="M 64 41.5 L 91.5 84.0 L 64 79.0 Z" fill="#6b5f55" stroke="#16131f" stroke-width="2" stroke-linejoin="round"/><path d="M 64 41.5 L 56.0 52.5 L 61.5 47.5 L 67.0 53.5 L 72.0 48.5 L 64 56.5 Z" fill="#eef2f7" opacity="0.95"/><path d="M 86.5 61.5 L 72.5 81.5 L 100.5 81.5 Z" fill="#9a8f82" stroke="#16131f" stroke-width="2" stroke-linejoin="round"/></svg>