<svg xmlns="http://www.w3.org/2000/svg" width="128" height="128" viewBox="0 0 128 128">
  <defs>
    <radialGradient id="bg" cx="50%" cy="50%" r="65%">
      <stop offset="0%" stop-color="#dba84a"/><stop offset="100%" stop-color="#9a6418"/>
    </radialGradient>
  </defs>
  <rect width="128" height="128" fill="url(#bg)" rx="8"/>
  <!-- cracked dry earth -->
  <g stroke="#8a5414" stroke-width="1.5" fill="none" opacity="0.55">
    <path d="M20 30 L35 55 L20 80"/><path d="M35 55 L60 48 L80 70 L100 55"/>
    <path d="M60 48 L55 25"/><path d="M80 70 L95 90 L80 110"/>
    <path d="M100 55 L118 45"/><path d="M5 60 L20 30"/>
    <path d="M95 90 L110 100 L120 88"/>
  </g>
  <!-- sand texture -->
  <g fill="#c4942a" opacity="0.3">
    <circle cx="12" cy="45" r="3"/><circle cx="48" cy="35" r="2.5"/>
    <circle cx="72" cy="55" r="3"/><circle cx="108" cy="40" r="2.5"/>
    <circle cx="30" cy="95" r="3"/><circle cx="65" cy="100" r="2"/>
    <circle cx="92" cy="108" r="3"/>
  </g>
  <!-- warm highlight -->
  <ellipse cx="45" cy="30" rx="25" ry="10" fill="#f0d060" opacity="0.25"/>
  <!-- dust swirl -->
  <path d="M90 20 Q110 30 105 50 Q100 70 115 80" stroke="#e8c050" stroke-width="2" fill="none" opacity="0.3" stroke-dasharray="4,3"/>
</svg>
