<svg xmlns="http://www.w3.org/2000/svg" width="128" height="128" viewBox="0 0 128 128"><path d="M 108.3 64.0 C 107.6 73.3, 104.6 81.3, 100.1 90.2 C 95.6 99.1, 90.1 113.3, 81.3 117.4 C 72.6 121.4, 57.3 118.4, 47.6 114.4 C 38.0 110.4, 30.2 101.9, 23.4 93.5 C 16.6 85.1, 6.5 73.7, 6.7 64.0 C 6.8 54.3, 17.5 43.6, 24.3 35.1 C 31.1 26.7, 38.2 16.7, 47.5 13.3 C 56.8 9.9, 70.6 11.1, 80.0 14.7 C 89.5 18.2, 99.7 26.4, 104.4 34.7 C 109.1 42.9, 109.0 54.7, 108.3 64.0 Z" fill="#c9b06a" stroke="#a98f4e" stroke-width="2" opacity="0.9" stroke-linejoin="round"/><path d="M 87.5 56.0 C 87.5 62.8, 86.2 71.0, 82.3 76.4 C 78.3 81.7, 70.6 86.5, 63.7 88.1 C 56.7 89.7, 45.8 89.8, 40.7 85.9 C 35.6 82.1, 34.6 71.7, 33.1 65.1 C 31.5 58.5, 29.5 51.8, 31.4 46.3 C 33.3 40.9, 38.9 36.5, 44.4 32.4 C 49.8 28.3, 57.7 21.1, 64.0 21.7 C 70.3 22.3, 78.3 30.0, 82.2 35.7 C 86.1 41.4, 87.5 49.2, 87.5 56.0 Z" fill="#e3d199" opacity="0.45"/><path d="M 51.5 51.5 q 12.5 7.0 25.1 0" fill="none" stroke="#e3d199" stroke-width="2" opacity="0.55"/><path d="M 44.2 66.5 q 19.8 7.0 39.5 0" fill="none" stroke="#b59a55" stroke-width="2" opacity="0.55"/><path d="M 49.9 81.5 q 14.1 7.0 28.1 0" fill="none" stroke="#e3d199" stroke-width="2" opacity="0.55"/><circle cx="54.7" cy="77.6" r="1.2" fill="#a98f4e" opacity="0.5"/><circle cx="58.4" cy="62.7" r="1.2" fill="#a98f4e" opacity="0.5"/><circle cx="74.4" cy="57.2" r="1.2" fill="#a98f4e" opacity="0.5"/><circle cx="69.8" cy="60.0" r="1.2" fill="#a98f4e" opacity="0.5"/></svg>