<svg xmlns="http://www.w3.org/2000/svg" width="128" height="128" viewBox="0 0 128 128">
  <defs>
    <radialGradient id="g" cx="55%" cy="45%" r="55%">
      <stop offset="0%" stop-color="#f0d06a"/>
      <stop offset="100%" stop-color="#b87820"/>
    </radialGradient>
    <clipPath id="c">
      <path d="M22 75 C16 58 22 40 38 32 C54 24 74 26 88 38 C102 50 108 68 100 84 C92 100 72 108 52 104 C32 100 28 92 22 75Z"/>
    </clipPath>
  </defs>
  <!-- small dune mound -->
  <path d="M22 75 C16 58 22 40 38 32 C54 24 74 26 88 38 C102 50 108 68 100 84 C92 100 72 108 52 104 C32 100 28 92 22 75Z" fill="url(#g)" opacity="0.94"/>
  <!-- dune crest highlight -->
  <path d="M30 55 C44 42 66 40 84 52 C70 46 48 46 30 55Z" fill="#f8e890" opacity="0.45"/>
  <!-- shadow on lee side -->
  <path d="M22 75 C16 58 22 40 38 32 L50 50 C36 58 26 68 22 75Z" fill="#906015" opacity="0.25"/>
  <!-- wind streaks -->
  <g clip-path="url(#c)" stroke="#d0a028" stroke-width="1.2" fill="none" opacity="0.5">
    <path d="M28 60 C45 56 68 58 90 54"/>
    <path d="M24 70 C42 66 68 68 94 64"/>
    <path d="M26 80 C46 76 70 78 95 74"/>
    <path d="M32 90 C50 86 72 88 92 84"/>
  </g>
  <path d="M22 75 C16 58 22 40 38 32 C54 24 74 26 88 38 C102 50 108 68 100 84 C92 100 72 108 52 104 C32 100 28 92 22 75Z" fill="none" stroke="#785010" stroke-width="1.5" opacity="0.35"/>
</svg>
