<svg xmlns="http://www.w3.org/2000/svg" width="128" height="128" viewBox="0 0 128 128"><path d="M 110.9 64.0 C 110.1 74.2, 108.7 84.4, 103.5 92.7 C 98.4 101.0, 89.4 110.3, 80.1 113.7 C 70.9 117.0, 57.7 116.1, 48.1 112.8 C 38.5 109.6, 27.4 102.3, 22.5 94.2 C 17.5 86.0, 18.1 73.8, 18.4 64.0 C 18.7 54.2, 19.6 44.1, 24.3 35.1 C 29.0 26.2, 37.5 12.5, 46.5 10.1 C 55.5 7.7, 67.7 17.1, 78.1 20.7 C 88.4 24.3, 103.1 24.4, 108.5 31.6 C 114.0 38.9, 111.8 53.8, 110.9 64.0 Z" fill="#c9b06a" stroke="#a98f4e" stroke-width="2" opacity="0.9" stroke-linejoin="round"/><path d="M 90.2 56.0 C 90.5 63.1, 88.8 72.9, 84.3 78.1 C 79.8 83.2, 70.6 85.9, 63.5 87.0 C 56.3 88.1, 46.9 88.1, 41.5 84.7 C 36.0 81.2, 33.2 72.8, 30.5 66.0 C 27.8 59.2, 23.1 50.0, 25.3 44.1 C 27.4 38.2, 36.9 34.3, 43.4 30.6 C 49.8 27.0, 57.4 21.5, 63.9 22.3 C 70.5 23.0, 78.4 29.6, 82.8 35.2 C 87.2 40.8, 90.0 48.9, 90.2 56.0 Z" fill="#e3d199" opacity="0.45"/><path d="M 46.6 51.5 q 17.4 7.0 34.7 0" fill="none" stroke="#e3d199" stroke-width="2" opacity="0.55"/><path d="M 51.4 66.5 q 12.6 7.0 25.2 0" fill="none" stroke="#b59a55" stroke-width="2" opacity="0.55"/><path d="M 47.4 81.5 q 16.6 7.0 33.1 0" fill="none" stroke="#e3d199" stroke-width="2" opacity="0.55"/><circle cx="49.3" cy="88.8" r="1.2" fill="#a98f4e" opacity="0.5"/><circle cx="37.6" cy="59.5" r="1.2" fill="#a98f4e" opacity="0.5"/><circle cx="47.6" cy="72.9" r="1.2" fill="#a98f4e" opacity="0.5"/><circle cx="41.5" cy="88.7" r="1.2" fill="#a98f4e" opacity="0.5"/></svg>