<svg xmlns="http://www.w3.org/2000/svg" width="128" height="128" viewBox="0 0 128 128">
  <defs>
    <radialGradient id="bg" cx="60%" cy="40%" r="60%">
      <stop offset="0%" stop-color="#f0d070"/><stop offset="100%" stop-color="#c89030"/>
    </radialGradient>
  </defs>
  <rect width="128" height="128" fill="url(#bg)" rx="8"/>
  <!-- large smooth dunes -->
  <path d="M0 60 Q40 35 80 55 Q108 68 128 50 L128 128 L0 128Z" fill="#d4a030" opacity="0.4"/>
  <path d="M0 90 Q50 75 100 88 Q116 93 128 85 L128 128 L0 128Z" fill="#b07820" opacity="0.35"/>
  <!-- scattered shells/pebbles for beach sand look -->
  <g fill="#e8d080" opacity="0.6">
    <ellipse cx="18" cy="108" rx="6" ry="3" transform="rotate(-20 18 108)"/>
    <ellipse cx="50" cy="114" rx="5" ry="2.5" transform="rotate(15 50 114)"/>
    <ellipse cx="82" cy="110" rx="4" ry="2" transform="rotate(-10 82 110)"/>
    <ellipse cx="112" cy="105" rx="5" ry="2.5" transform="rotate(25 112 105)"/>
  </g>
  <!-- subtle ripple marks -->
  <g stroke="#b87020" stroke-width="1" fill="none" opacity="0.4">
    <path d="M10 45 Q30 40 55 46 Q80 52 105 45"/>
    <path d="M5 52 Q28 47 55 53 Q82 59 110 52"/>
  </g>
  <rect width="128" height="128" fill="#fff8d0" opacity="0.1" rx="8"/>
</svg>
