<svg xmlns="http://www.w3.org/2000/svg" width="128" height="128" viewBox="0 0 128 128">
  <defs>
    <radialGradient id="g" cx="42%" cy="50%" r="62%">
      <stop offset="0%" stop-color="#deb84e"/>
      <stop offset="100%" stop-color="#956015"/>
    </radialGradient>
    <clipPath id="c">
      <path d="M12 60 C10 42 24 26 44 22 C62 18 82 22 98 36 C114 50 120 70 110 86 C100 102 78 110 56 106 C34 102 14 78 12 60Z"/>
    </clipPath>
  </defs>
  <path d="M12 60 C10 42 24 26 44 22 C62 18 82 22 98 36 C114 50 120 70 110 86 C100 102 78 106 56 106 C34 106 14 78 12 60Z" fill="url(#g)" opacity="0.93"/>
  <!-- cracked earth pattern -->
  <g clip-path="url(#c)" stroke="#7a4a10" stroke-width="1.2" fill="none" opacity="0.45">
    <path d="M40 45 L50 65 L35 82"/><path d="M50 65 L70 58 L88 72"/>
    <path d="M70 58 L65 35"/><path d="M88 72 L96 90 L82 102"/>
    <path d="M30 72 L50 65"/>
  </g>
  <!-- sand granules texture -->
  <g clip-path="url(#c)" fill="#b07828" opacity="0.4">
    <circle cx="30" cy="52" r="2.5"/><circle cx="55" cy="40" r="2"/>
    <circle cx="78" cy="48" r="2.5"/><circle cx="98" cy="62" r="2"/>
    <circle cx="45" cy="88" r="3"/><circle cx="72" cy="92" r="2"/>
    <circle cx="90" cy="80" r="2.5"/>
  </g>
  <path d="M12 60 C10 42 24 26 44 22 C62 18 82 22 98 36 C114 50 120 70 110 86 C100 102 78 106 56 106 C34 106 14 78 12 60Z" fill="none" stroke="#603808" stroke-width="1.5" opacity="0.35"/>
</svg>
