<svg xmlns="http://www.w3.org/2000/svg" width="128" height="128" viewBox="0 0 128 128"><path d="M 119.5 64.0 C 119.7 71.9, 107.1 80.4, 101.3 88.0 C 95.5 95.6, 92.3 104.4, 84.8 109.5 C 77.3 114.6, 64.4 120.5, 56.2 118.4 C 47.9 116.3, 41.1 104.1, 35.3 97.1 C 29.6 90.1, 24.5 84.2, 21.6 76.4 C 18.8 68.7, 15.6 58.0, 18.0 50.5 C 20.4 43.0, 29.5 37.6, 36.0 31.7 C 42.5 25.8, 49.2 16.7, 57.0 15.3 C 64.8 13.9, 75.4 19.0, 82.6 23.3 C 89.8 27.5, 94.0 34.0, 100.2 40.8 C 106.3 47.5, 119.3 56.1, 119.5 64.0 Z" fill="#e7eef7" stroke="#b7c9dd" stroke-width="2" opacity="0.92" stroke-linejoin="round"/><path d="M 89.8 55.0 C 90.1 60.6, 84.5 68.0, 80.4 72.4 C 76.3 76.8, 70.6 79.5, 65.1 81.4 C 59.5 83.3, 52.6 85.1, 47.2 83.6 C 41.8 82.1, 36.0 77.0, 32.8 72.3 C 29.5 67.5, 28.4 61.3, 27.7 55.0 C 27.0 48.7, 25.1 39.1, 28.4 34.6 C 31.7 30.1, 41.7 28.6, 47.7 27.9 C 53.7 27.2, 59.4 28.4, 64.5 30.2 C 69.7 32.1, 74.6 34.6, 78.8 38.8 C 83.1 42.9, 89.6 49.4, 89.8 55.0 Z" fill="#ffffff" opacity="0.7"/><ellipse cx="60.0" cy="81.4" rx="9.0" ry="4.0" fill="#b7c9dd" opacity="0.3"/><ellipse cx="83.0" cy="64.8" rx="9.0" ry="4.0" fill="#b7c9dd" opacity="0.3"/><ellipse cx="67.7" cy="69.1" rx="9.0" ry="4.0" fill="#b7c9dd" opacity="0.3"/><circle cx="90.9" cy="61.9" r="1.1" fill="#ffffff" opacity="0.9"/><circle cx="44.6" cy="53.5" r="1.1" fill="#ffffff" opacity="0.9"/><circle cx="46.3" cy="79.0" r="1.1" fill="#ffffff" opacity="0.9"/><circle cx="40.1" cy="69.0" r="1.1" fill="#ffffff" opacity="0.9"/><circle cx="52.4" cy="39.5" r="1.1" fill="#ffffff" opacity="0.9"/><circle cx="80.6" cy="70.3" r="1.1" fill="#ffffff" opacity="0.9"/></svg>