<svg xmlns="http://www.w3.org/2000/svg" width="128" height="128" viewBox="0 0 128 128"><path d="M 114.7 64.0 C 113.4 73.3, 108.4 81.3, 103.7 89.5 C 99.1 97.8, 94.7 108.6, 86.7 113.7 C 78.7 118.8, 64.4 123.0, 55.9 120.0 C 47.5 117.1, 43.6 102.9, 36.1 96.2 C 28.7 89.4, 14.3 87.1, 11.2 79.5 C 8.2 71.9, 14.4 59.0, 18.0 50.5 C 21.7 42.0, 26.8 35.4, 33.2 28.4 C 39.5 21.4, 47.4 10.4, 56.0 8.6 C 64.7 6.8, 75.9 13.7, 85.1 17.8 C 94.3 22.0, 106.4 25.9, 111.4 33.6 C 116.3 41.2, 115.9 54.7, 114.7 64.0 Z" fill="#e7eef7" stroke="#b7c9dd" stroke-width="2" opacity="0.92" stroke-linejoin="round"/><path d="M 83.8 55.0 C 84.2 60.9, 85.1 68.8, 82.1 73.6 C 79.2 78.5, 71.6 83.0, 65.9 84.1 C 60.3 85.2, 54.2 81.9, 48.3 80.2 C 42.4 78.5, 33.9 78.0, 30.7 73.8 C 27.5 69.6, 29.2 61.3, 29.1 55.0 C 29.0 48.7, 26.9 40.4, 30.0 35.7 C 33.0 31.1, 41.3 28.7, 47.4 26.9 C 53.4 25.1, 60.9 22.9, 66.3 24.7 C 71.8 26.6, 77.0 33.0, 79.9 38.0 C 82.8 43.1, 83.4 49.1, 83.8 55.0 Z" fill="#ffffff" opacity="0.7"/><ellipse cx="83.9" cy="71.2" rx="9.0" ry="4.0" fill="#b7c9dd" opacity="0.3"/><ellipse cx="75.3" cy="63.8" rx="9.0" ry="4.0" fill="#b7c9dd" opacity="0.3"/><ellipse cx="71.9" cy="66.4" rx="9.0" ry="4.0" fill="#b7c9dd" opacity="0.3"/><circle cx="87.2" cy="43.2" r="1.1" fill="#ffffff" opacity="0.9"/><circle cx="86.0" cy="80.1" r="1.1" fill="#ffffff" opacity="0.9"/><circle cx="71.9" cy="56.0" r="1.1" fill="#ffffff" opacity="0.9"/><circle cx="93.1" cy="44.9" r="1.1" fill="#ffffff" opacity="0.9"/><circle cx="63.5" cy="80.5" r="1.1" fill="#ffffff" opacity="0.9"/><circle cx="59.9" cy="50.4" r="1.1" fill="#ffffff" opacity="0.9"/></svg>