<svg xmlns="http://www.w3.org/2000/svg" width="128" height="128" viewBox="0 0 128 128"><path d="M 113.6 64.0 C 111.7 73.1, 105.6 80.5, 100.6 87.5 C 95.5 94.5, 90.5 101.3, 83.2 106.0 C 75.9 110.8, 65.9 116.0, 56.5 116.1 C 47.1 116.3, 34.2 113.1, 26.8 106.9 C 19.5 100.7, 13.9 88.5, 12.5 79.1 C 11.1 69.7, 16.0 60.1, 18.5 50.6 C 21.1 41.1, 21.5 29.4, 27.7 22.1 C 33.9 14.9, 46.8 6.6, 55.8 7.1 C 64.8 7.5, 72.5 20.5, 81.9 24.9 C 91.3 29.2, 106.8 26.6, 112.1 33.1 C 117.4 39.6, 115.5 54.9, 113.6 64.0 Z" fill="#e7eef7" stroke="#b7c9dd" stroke-width="2" opacity="0.92" stroke-linejoin="round"/><path d="M 89.6 55.0 C 89.8 61.5, 87.4 69.2, 83.7 74.7 C 79.9 80.3, 73.3 86.7, 67.2 88.1 C 61.2 89.4, 53.4 85.1, 47.5 82.6 C 41.6 80.1, 35.6 77.5, 31.8 72.9 C 28.0 68.3, 25.4 61.3, 24.9 55.0 C 24.4 48.7, 25.2 39.5, 29.0 35.0 C 32.8 30.5, 41.5 29.9, 47.8 28.1 C 54.0 26.4, 60.6 23.2, 66.4 24.5 C 72.2 25.8, 78.9 30.8, 82.8 35.9 C 86.7 41.0, 89.5 48.5, 89.6 55.0 Z" fill="#ffffff" opacity="0.7"/><ellipse cx="80.9" cy="71.6" rx="9.0" ry="4.0" fill="#b7c9dd" opacity="0.3"/><ellipse cx="83.0" cy="61.5" rx="9.0" ry="4.0" fill="#b7c9dd" opacity="0.3"/><ellipse cx="68.9" cy="76.1" rx="9.0" ry="4.0" fill="#b7c9dd" opacity="0.3"/><circle cx="36.9" cy="74.5" r="1.1" fill="#ffffff" opacity="0.9"/><circle cx="55.4" cy="69.1" r="1.1" fill="#ffffff" opacity="0.9"/><circle cx="77.1" cy="82.1" r="1.1" fill="#ffffff" opacity="0.9"/><circle cx="86.4" cy="52.6" r="1.1" fill="#ffffff" opacity="0.9"/><circle cx="35.2" cy="71.0" r="1.1" fill="#ffffff" opacity="0.9"/><circle cx="48.0" cy="82.2" r="1.1" fill="#ffffff" opacity="0.9"/></svg>