<svg xmlns="http://www.w3.org/2000/svg" width="128" height="128" viewBox="0 0 128 128"><ellipse cx="64.0" cy="89.0" rx="47.5" ry="19.0" fill="#000000" opacity="0.22"/><path d="M 77.6 61.2 C 77.2 67.0, 70.6 73.6, 65.6 77.5 C 60.5 81.4, 53.1 85.7, 47.2 84.7 C 41.4 83.8, 33.0 77.4, 30.5 71.8 C 27.9 66.3, 29.0 56.5, 31.8 51.2 C 34.7 45.9, 41.8 41.2, 47.7 39.8 C 53.6 38.4, 62.4 39.0, 67.4 42.6 C 72.4 46.1, 77.9 55.4, 77.6 61.2 Z" fill="#7a7c86" stroke="#16131f" stroke-width="3" stroke-linejoin="round"/><path d="M 58.8 54.9 C 58.7 58.0, 55.9 62.2, 53.2 63.7 C 50.5 65.3, 45.4 65.7, 42.6 64.3 C 39.9 62.8, 36.8 58.1, 36.7 54.9 C 36.6 51.6, 39.3 46.4, 42.2 44.7 C 45.0 43.0, 51.1 43.1, 53.9 44.8 C 56.6 46.5, 58.9 51.7, 58.8 54.9 Z" fill="#a3a6b0" opacity="0.6"/><line x1="50.8" y1="58.5" x2="55.3" y2="66.2" stroke="#3d3e44" stroke-width="1.4" stroke-linecap="round"/><path d="M 84.6 64.0 C 84.6 69.7, 82.0 77.9, 77.8 81.3 C 73.6 84.7, 65.2 85.5, 59.4 84.3 C 53.5 83.2, 45.2 79.0, 43.0 74.1 C 40.7 69.3, 42.9 60.2, 45.6 55.2 C 48.4 50.2, 54.1 45.5, 59.5 44.1 C 64.8 42.8, 73.4 43.7, 77.6 47.0 C 81.8 50.3, 84.5 58.3, 84.6 64.0 Z" fill="#7a7c86" stroke="#16131f" stroke-width="3" stroke-linejoin="round"/><path d="M 71.6 58.0 C 71.7 61.1, 68.6 66.9, 65.7 68.4 C 62.9 69.9, 57.1 68.8, 54.5 67.1 C 51.9 65.3, 50.1 61.0, 50.1 58.0 C 50.1 55.0, 52.3 50.7, 54.7 49.3 C 57.1 47.9, 61.8 48.1, 64.6 49.5 C 67.4 51.0, 71.4 54.8, 71.6 58.0 Z" fill="#a3a6b0" opacity="0.6"/><line x1="62.3" y1="61.4" x2="66.6" y2="68.7" stroke="#3d3e44" stroke-width="1.4" stroke-linecap="round"/></svg>