<svg xmlns="http://www.w3.org/2000/svg" width="128" height="128" viewBox="0 0 128 128"><ellipse cx="64.0" cy="89.0" rx="47.5" ry="19.0" fill="#000000" opacity="0.22"/><path d="M 70.9 63.9 C 70.9 70.6, 67.5 79.6, 62.3 84.1 C 57.2 88.6, 46.3 92.7, 40.0 91.0 C 33.8 89.4, 27.8 80.7, 24.8 74.2 C 21.9 67.8, 19.8 58.6, 22.3 52.4 C 24.8 46.2, 33.4 38.3, 40.1 36.9 C 46.7 35.4, 57.2 39.2, 62.4 43.7 C 67.5 48.2, 70.9 57.2, 70.9 63.9 Z" fill="#7a7c86" stroke="#16131f" stroke-width="3" stroke-linejoin="round"/><path d="M 53.3 56.9 C 53.3 60.5, 50.7 65.9, 47.6 67.9 C 44.4 69.9, 37.2 70.7, 34.3 68.9 C 31.4 67.0, 29.7 60.6, 29.9 56.9 C 30.1 53.2, 32.4 48.3, 35.3 46.6 C 38.1 44.9, 44.2 44.8, 47.2 46.5 C 50.2 48.2, 53.2 53.3, 53.3 56.9 Z" fill="#a3a6b0" opacity="0.6"/><line x1="44.2" y1="60.9" x2="49.2" y2="69.4" stroke="#3d3e44" stroke-width="1.4" stroke-linecap="round"/><path d="M 87.3 64.0 C 87.4 70.1, 83.6 78.3, 78.7 82.5 C 73.9 86.6, 64.4 90.2, 58.3 88.8 C 52.3 87.4, 44.9 80.0, 42.6 74.3 C 40.3 68.6, 41.7 59.9, 44.5 54.6 C 47.2 49.2, 53.4 43.6, 59.0 42.2 C 64.7 40.8, 73.5 42.5, 78.2 46.1 C 83.0 49.8, 87.3 57.9, 87.3 64.0 Z" fill="#7a7c86" stroke="#16131f" stroke-width="3" stroke-linejoin="round"/><path d="M 70.8 57.4 C 70.9 60.9, 68.6 66.5, 65.6 68.3 C 62.6 70.2, 56.2 70.2, 52.9 68.3 C 49.7 66.5, 45.9 60.7, 46.1 57.4 C 46.3 54.0, 50.8 50.0, 54.0 48.3 C 57.2 46.6, 62.4 45.5, 65.2 47.0 C 68.0 48.5, 70.7 53.8, 70.8 57.4 Z" fill="#a3a6b0" opacity="0.6"/><line x1="62.1" y1="61.2" x2="66.8" y2="69.2" stroke="#3d3e44" stroke-width="1.4" stroke-linecap="round"/></svg>