<svg xmlns="http://www.w3.org/2000/svg" width="128" height="128" viewBox="0 0 128 128">
  <defs>
    <radialGradient id="bg" cx="50%" cy="50%" r="65%">
      <stop offset="0%" stop-color="#8a9298"/><stop offset="100%" stop-color="#44484c"/>
    </radialGradient>
  </defs>
  <rect width="128" height="128" fill="url(#bg)" rx="8"/>
  <!-- cobblestone grid -->
  <g fill="#6a7278" stroke="#38404a" stroke-width="1.5">
    <rect x="4" y="4" width="24" height="18" rx="3"/>
    <rect x="32" y="4" width="28" height="18" rx="3"/>
    <rect x="64" y="4" width="24" height="18" rx="3"/>
    <rect x="92" y="4" width="32" height="18" rx="3"/>
    <rect x="4" y="26" width="30" height="18" rx="3"/>
    <rect x="38" y="26" width="22" height="18" rx="3"/>
    <rect x="64" y="26" width="30" height="18" rx="3"/>
    <rect x="98" y="26" width="26" height="18" rx="3"/>
    <rect x="4" y="48" width="26" height="18" rx="3"/>
    <rect x="34" y="48" width="28" height="18" rx="3"/>
    <rect x="66" y="48" width="26" height="18" rx="3"/>
    <rect x="96" y="48" width="28" height="18" rx="3"/>
    <rect x="4" y="70" width="32" height="18" rx="3"/>
    <rect x="40" y="70" width="24" height="18" rx="3"/>
    <rect x="68" y="70" width="28" height="18" rx="3"/>
    <rect x="100" y="70" width="24" height="18" rx="3"/>
    <rect x="4" y="92" width="28" height="18" rx="3"/>
    <rect x="36" y="92" width="30" height="18" rx="3"/>
    <rect x="70" y="92" width="24" height="18" rx="3"/>
    <rect x="98" y="92" width="26" height="18" rx="3"/>
    <rect x="4" y="114" width="22" height="10" rx="3"/>
    <rect x="30" y="114" width="28" height="10" rx="3"/>
    <rect x="62" y="114" width="26" height="10" rx="3"/>
    <rect x="92" y="114" width="32" height="10" rx="3"/>
  </g>
  <!-- stone highlights -->
  <g fill="#a8b0b8" opacity="0.4">
    <rect x="6" y="6" width="10" height="4" rx="2"/>
    <rect x="66" y="6" width="8" height="4" rx="2"/>
    <rect x="36" y="28" width="10" height="4" rx="2"/>
    <rect x="5" y="72" width="12" height="4" rx="2"/>
  </g>
  <!-- moss patches -->
  <g fill="#5a7a4a" opacity="0.3">
    <ellipse cx="20" cy="20" rx="4" ry="3"/>
    <ellipse cx="75" cy="58" rx="5" ry="3"/>
    <ellipse cx="110" cy="80" rx="4" ry="2.5"/>
  </g>
</svg>
