<svg xmlns="http://www.w3.org/2000/svg" width="128" height="128" viewBox="0 0 128 128">
  <defs>
    <radialGradient id="shadow" cx="50%" cy="72%" r="52%">
      <stop offset="0%" stop-color="#000" stop-opacity="0.22"/>
      <stop offset="100%" stop-color="#000" stop-opacity="0"/>
    </radialGradient>
  </defs>
  <ellipse cx="64" cy="96" rx="52" ry="14" fill="url(#shadow)"/>
  <!-- rocky outcrop cluster — 5 rocks -->
  <g>
    <!-- back rocks (darker) -->
    <path d="M30 72 C26 60 32 48 44 44 C56 40 66 48 66 60 C66 72 56 80 44 80 C32 80 34 84 30 72Z" fill="#606870"/>
    <path d="M64 68 C62 56 70 46 82 44 C94 42 102 52 100 64 C98 76 88 82 76 80 C64 78 66 80 64 68Z" fill="#626a74"/>
    <!-- front rocks (lighter) -->
    <path d="M18 86 C14 74 20 62 32 58 C44 54 54 62 54 74 C54 86 44 94 32 94 C20 94 22 98 18 86Z" fill="#7c8690"/>
    <path d="M50 90 C46 78 54 66 68 64 C82 62 92 72 90 84 C88 96 76 102 62 100 C48 98 54 102 50 90Z" fill="#788290"/>
    <path d="M86 88 C82 78 88 66 98 64 C108 62 118 70 116 82 C114 94 104 100 94 98 C84 96 90 98 86 88Z" fill="#6e7880"/>
  </g>
  <!-- highlights on tops -->
  <g fill="#a0aaB4" opacity="0.5">
    <path d="M34 48 C44 44 58 46 64 54 C54 48 42 46 34 48Z"/>
    <path d="M68 44 C78 40 94 44 98 52 C88 46 76 42 68 44Z"/>
    <path d="M22 60 C30 54 46 56 50 64 C40 58 28 56 22 60Z"/>
  </g>
  <!-- moss -->
  <g fill="#3a5a2a" opacity="0.5">
    <ellipse cx="32" cy="90" rx="8" ry="3"/>
    <ellipse cx="70" cy="96" rx="10" ry="3.5"/>
    <ellipse cx="100" cy="90" rx="7" ry="3"/>
  </g>
</svg>
