<svg xmlns="http://www.w3.org/2000/svg" width="128" height="128" viewBox="0 0 128 128">
  <defs>
    <radialGradient id="shadow" cx="50%" cy="70%" r="55%">
      <stop offset="0%" stop-color="#000" stop-opacity="0.25"/>
      <stop offset="100%" stop-color="#000" stop-opacity="0"/>
    </radialGradient>
  </defs>
  <!-- ground shadow under rocks -->
  <ellipse cx="64" cy="95" rx="55" ry="16" fill="url(#shadow)"/>
  <!-- large center boulder -->
  <path d="M34 82 C26 72 28 56 38 46 C48 36 64 34 78 40 C92 46 100 60 96 74 C92 88 78 96 62 96 C46 96 42 92 34 82Z" fill="#7a8088"/>
  <path d="M34 82 C26 72 28 56 38 46 C48 36 64 34 78 40 C92 46 100 60 96 74 C92 88 78 96 62 96 C46 96 42 92 34 82Z" fill="#a0a8b0" opacity="0.5" transform="translate(-4,-8)"/>
  <!-- rock cracks -->
  <g stroke="#484e54" stroke-width="1.2" fill="none" opacity="0.6">
    <path d="M50 50 L58 68 L46 80"/><path d="M58 68 L74 62 L84 78"/>
    <path d="M74 62 L70 44"/>
  </g>
  <!-- rock highlight -->
  <path d="M44 48 C54 42 70 42 80 50 C68 44 52 44 44 48Z" fill="#c0c8d0" opacity="0.55"/>
  <!-- left small rock -->
  <path d="M10 86 C6 76 10 64 20 60 C30 56 40 62 42 72 C44 82 38 92 26 94 C14 96 14 96 10 86Z" fill="#6a7280"/>
  <path d="M10 86 C6 76 10 64 20 60 C30 56 40 62 42 72 C44 82 38 92 26 94 C14 96 14 96 10 86Z" fill="#8a9098" opacity="0.45" transform="translate(-3,-6)"/>
  <!-- right small rock -->
  <path d="M86 88 C82 78 86 66 96 62 C106 58 116 66 116 76 C116 86 108 94 98 94 C88 94 90 98 86 88Z" fill="#6a7280"/>
  <path d="M86 88 C82 78 86 66 96 62 C106 58 116 66 116 76 C116 86 108 94 98 94 C88 94 90 98 86 88Z" fill="#8a9098" opacity="0.45" transform="translate(-3,-6)"/>
  <!-- moss patches -->
  <g fill="#4a6a3a" opacity="0.5">
    <ellipse cx="52" cy="88" rx="8" ry="3"/>
    <ellipse cx="78" cy="84" rx="6" ry="2.5"/>
    <ellipse cx="24" cy="88" rx="6" ry="2.5"/>
  </g>
</svg>
