<svg xmlns="http://www.w3.org/2000/svg" width="128" height="128" viewBox="0 0 128 128"><ellipse cx="64.0" cy="89.0" rx="47.5" ry="19.0" fill="#000000" opacity="0.22"/><path d="M 86.8 64.0 C 86.7 70.4, 83.4 78.8, 78.8 82.5 C 74.1 86.3, 64.6 88.1, 58.8 86.6 C 53.0 85.2, 46.6 79.1, 43.9 73.7 C 41.3 68.2, 40.4 59.5, 42.8 53.8 C 45.3 48.1, 52.3 41.3, 58.5 39.7 C 64.6 38.1, 74.9 40.4, 79.6 44.4 C 84.4 48.5, 87.0 57.6, 86.8 64.0 Z" fill="#7a7c86" stroke="#16131f" stroke-width="3" stroke-linejoin="round"/><path d="M 72.3 57.3 C 72.3 61.0, 68.7 66.8, 65.6 68.3 C 62.5 69.9, 56.7 68.4, 53.8 66.6 C 51.0 64.8, 48.6 60.7, 48.4 57.3 C 48.2 53.9, 49.9 48.1, 52.8 46.2 C 55.7 44.3, 62.4 44.3, 65.6 46.2 C 68.9 48.0, 72.4 53.6, 72.3 57.3 Z" fill="#a3a6b0" opacity="0.6"/><line x1="62.1" y1="61.1" x2="66.9" y2="69.3" stroke="#3d3e44" stroke-width="1.4" stroke-linecap="round"/><path d="M 85.3 67.8 C 85.0 75.4, 81.8 84.6, 76.3 89.5 C 70.8 94.4, 59.3 98.7, 52.3 97.0 C 45.2 95.4, 37.6 86.9, 34.0 79.8 C 30.5 72.6, 27.7 60.8, 30.8 54.2 C 33.9 47.7, 44.8 42.2, 52.7 40.4 C 60.6 38.7, 72.7 39.2, 78.1 43.7 C 83.5 48.3, 85.6 60.1, 85.3 67.8 Z" fill="#7a7c86" stroke="#16131f" stroke-width="3" stroke-linejoin="round"/><path d="M 66.4 59.5 C 66.5 63.5, 63.8 70.3, 60.4 72.3 C 57.0 74.3, 49.5 73.7, 46.1 71.6 C 42.7 69.5, 40.1 63.6, 40.1 59.5 C 40.0 55.5, 42.7 49.1, 45.9 47.2 C 49.2 45.3, 56.2 46.1, 59.6 48.2 C 63.0 50.2, 66.3 55.5, 66.4 59.5 Z" fill="#a3a6b0" opacity="0.6"/><line x1="56.6" y1="64.2" x2="62.5" y2="74.3" stroke="#3d3e44" stroke-width="1.4" stroke-linecap="round"/><path d="M 93.2 74.7 C 93.2 80.2, 88.8 87.8, 84.5 91.0 C 80.1 94.2, 72.4 95.1, 67.1 93.9 C 61.9 92.6, 55.2 88.2, 53.0 83.6 C 50.8 79.0, 51.6 71.0, 53.9 66.2 C 56.3 61.5, 61.9 56.5, 67.0 55.2 C 72.2 53.9, 80.3 55.0, 84.6 58.2 C 89.0 61.5, 93.2 69.2, 93.2 74.7 Z" fill="#7a7c86" stroke="#16131f" stroke-width="3" stroke-linejoin="round"/><path d="M 78.4 68.7 C 78.4 71.5, 74.8 75.8, 72.1 77.2 C 69.4 78.6, 64.9 78.7, 62.2 77.3 C 59.5 75.9, 55.9 71.5, 55.9 68.7 C 55.9 65.8, 59.6 61.7, 62.3 60.3 C 65.1 58.8, 69.5 58.6, 72.2 60.0 C 74.9 61.4, 78.4 65.8, 78.4 68.7 Z" fill="#a3a6b0" opacity="0.6"/><line x1="69.8" y1="72.1" x2="74.1" y2="79.4" stroke="#3d3e44" stroke-width="1.4" stroke-linecap="round"/></svg>