<svg xmlns="http://www.w3.org/2000/svg" width="128" height="128" viewBox="0 0 128 128">
  <defs>
    <radialGradient id="shadow" cx="50%" cy="75%" r="55%">
      <stop offset="0%" stop-color="#000" stop-opacity="0.2"/>
      <stop offset="100%" stop-color="#000" stop-opacity="0"/>
    </radialGradient>
  </defs>
  <ellipse cx="64" cy="98" rx="58" ry="14" fill="url(#shadow)"/>
  <!-- wide flat boulder -->
  <path d="M16 78 C12 64 20 48 36 40 C52 32 76 34 96 46 C112 56 116 72 108 84 C100 96 80 102 58 100 C36 98 20 92 16 78Z" fill="#74808a"/>
  <path d="M16 78 C12 64 20 48 36 40 C52 32 76 34 96 46 C112 56 116 72 108 84 C100 96 80 102 58 100 C36 98 20 92 16 78Z" fill="#98a4ae" opacity="0.45" transform="translate(-4,-8)"/>
  <!-- granite surface cracks -->
  <g stroke="#404850" stroke-width="1.5" fill="none" opacity="0.55">
    <path d="M28 50 L42 70 L28 86"/><path d="M42 70 L68 62 L90 76 L106 66"/>
    <path d="M68 62 L62 38"/><path d="M90 76 L96 92"/>
  </g>
  <!-- flat top highlight -->
  <path d="M24 46 C40 38 68 36 90 46 C68 40 40 42 24 46Z" fill="#b8c4cc" opacity="0.55"/>
  <!-- moss patches in cracks -->
  <g fill="#3a5a2a" opacity="0.55">
    <ellipse cx="38" cy="72" rx="7" ry="3"/>
    <ellipse cx="72" cy="84" rx="9" ry="3.5"/>
    <ellipse cx="96" cy="74" rx="6" ry="2.5"/>
  </g>
  <!-- small pebble cluster -->
  <g fill="#5a6570">
    <ellipse cx="22" cy="92" rx="5" ry="3"/>
    <ellipse cx="104" cy="88" rx="4" ry="2.5"/>
    <ellipse cx="62" cy="96" rx="6" ry="3"/>
  </g>
</svg>
