<svg xmlns="http://www.w3.org/2000/svg" width="128" height="128" viewBox="0 0 128 128">
  <defs>
    <radialGradient id="g" cx="50%" cy="50%" r="55%">
      <stop offset="0%" stop-color="#3aaad8"/>
      <stop offset="100%" stop-color="#0a3868"/>
    </radialGradient>
    <clipPath id="c">
      <path d="M14 64 C12 46 26 30 46 24 C66 18 88 24 102 40 C116 56 114 78 100 92 C86 106 62 110 42 102 C22 94 16 82 14 64Z"/>
    </clipPath>
  </defs>
  <!-- water pool -->
  <path d="M14 64 C12 46 26 30 46 24 C66 18 88 24 102 40 C116 56 114 78 100 92 C86 106 62 110 42 102 C22 94 16 82 14 64Z" fill="url(#g)" opacity="0.95"/>
  <!-- depth shading in center -->
  <ellipse cx="62" cy="64" rx="24" ry="18" fill="#062848" opacity="0.35"/>
  <!-- concentric ripples -->
  <g clip-path="url(#c)" stroke="#7ad4f8" stroke-width="1.5" fill="none" opacity="0.5">
    <ellipse cx="62" cy="64" rx="12" ry="8"/>
    <ellipse cx="62" cy="64" rx="24" ry="15"/>
    <ellipse cx="62" cy="64" rx="36" ry="22"/>
    <ellipse cx="62" cy="64" rx="46" ry="28"/>
  </g>
  <!-- light reflection streak -->
  <path d="M38 32 C52 26 70 28 84 36 C70 32 52 30 38 32Z" fill="#b8ecff" opacity="0.55"/>
  <!-- foam dots at edge -->
  <g clip-path="url(#c)" fill="#c8f0ff" opacity="0.7">
    <circle cx="28" cy="58" r="2"/><circle cx="40" cy="36" r="1.5"/>
    <circle cx="70" cy="24" r="2"/><circle cx="96" cy="46" r="1.5"/>
    <circle cx="100" cy="76" r="2"/><circle cx="75" cy="100" r="1.5"/>
    <circle cx="42" cy="98" r="2"/>
  </g>
  <path d="M14 64 C12 46 26 30 46 24 C66 18 88 24 102 40 C116 56 114 78 100 92 C86 106 62 110 42 102 C22 94 16 82 14 64Z" fill="none" stroke="#062848" stroke-width="2" opacity="0.45"/>
</svg>
