<svg xmlns="http://www.w3.org/2000/svg" width="128" height="128" viewBox="0 0 128 128">
  <defs>
    <radialGradient id="g" cx="50%" cy="48%" r="55%">
      <stop offset="0%" stop-color="#40b8e0"/>
      <stop offset="100%" stop-color="#0c4878"/>
    </radialGradient>
    <clipPath id="c">
      <path d="M4 60 C6 40 22 26 44 22 C68 18 92 24 108 44 C120 60 118 80 104 94 C90 108 66 112 44 106 C22 100 2 80 4 60Z"/>
    </clipPath>
  </defs>
  <path d="M4 60 C6 40 22 26 44 22 C68 18 92 24 108 44 C120 60 118 80 104 94 C90 108 66 112 44 106 C22 100 2 80 4 60Z" fill="url(#g)" opacity="0.93"/>
  <!-- visible shallow floor -->
  <g clip-path="url(#c)" fill="#1a5888" opacity="0.35">
    <ellipse cx="38" cy="80" rx="18" ry="10"/>
    <ellipse cx="85" cy="65" rx="16" ry="9"/>
    <ellipse cx="58" cy="95" rx="14" ry="8"/>
  </g>
  <!-- gentle horizontal ripples -->
  <g clip-path="url(#c)" stroke="#80d4f4" stroke-width="1.2" fill="none" opacity="0.45">
    <path d="M8 44 Q30 38 56 43 Q82 48 110 42"/>
    <path d="M6 54 Q28 48 56 53 Q84 58 112 52"/>
    <path d="M6 64 Q30 58 56 63 Q82 68 112 62"/>
    <path d="M8 74 Q32 68 56 73 Q80 78 108 72"/>
    <path d="M10 84 Q34 78 58 83 Q80 88 106 82"/>
    <path d="M14 94 Q38 88 60 93 Q82 98 104 92"/>
  </g>
  <!-- caustic light -->
  <g clip-path="url(#c)" fill="#a0e4ff" opacity="0.3">
    <ellipse cx="32" cy="50" rx="8" ry="3" transform="rotate(-20 32 50)"/>
    <ellipse cx="76" cy="48" rx="10" ry="4" transform="rotate(15 76 48)"/>
    <ellipse cx="55" cy="72" rx="7" ry="3" transform="rotate(-5 55 72)"/>
  </g>
  <!-- bright highlight at top -->
  <path d="M28 26 C48 20 72 22 92 30 C72 26 48 24 28 26Z" fill="#d8f4ff" opacity="0.55"/>
  <path d="M4 60 C6 40 22 26 44 22 C68 18 92 24 108 44 C120 60 118 80 104 94 C90 108 66 112 44 106 C22 100 2 80 4 60Z" fill="none" stroke="#041838" stroke-width="2" opacity="0.4"/>
</svg>
