<svg xmlns="http://www.w3.org/2000/svg" width="128" height="128" viewBox="0 0 128 128">
  <defs>
    <radialGradient id="bg" cx="40%" cy="40%" r="70%">
      <stop offset="0%" stop-color="#1e78b4"/><stop offset="100%" stop-color="#06254a"/>
    </radialGradient>
  </defs>
  <rect width="128" height="128" fill="url(#bg)" rx="8"/>
  <!-- choppy wave shapes -->
  <g fill="#2890d0" opacity="0.55">
    <path d="M0 45 Q8 38 16 45 Q24 52 32 45 Q40 38 48 45 Q56 52 64 45 Q72 38 80 45 Q88 52 96 45 Q104 38 112 45 Q120 52 128 45 L128 58 Q120 65 112 58 Q104 51 96 58 Q88 65 80 58 Q72 51 64 58 Q56 65 48 58 Q40 51 32 58 Q24 65 16 58 Q8 51 0 58Z"/>
    <path d="M0 70 Q10 63 20 70 Q30 77 40 70 Q50 63 60 70 Q70 77 80 70 Q90 63 100 70 Q110 77 120 70 L128 74 L128 84 Q118 90 108 84 Q98 78 88 84 Q78 90 68 84 Q58 78 48 84 Q38 90 28 84 Q18 78 8 84 L0 84Z"/>
  </g>
  <!-- white foam caps -->
  <g fill="#d8f0ff" opacity="0.65">
    <path d="M8 42 Q12 39 16 42"/><path d="M40 42 Q44 39 48 42"/>
    <path d="M72 42 Q76 39 80 42"/><path d="M104 42 Q108 39 112 42"/>
    <path d="M20 68 Q25 65 30 68"/><path d="M60 68 Q65 65 70 68"/>
    <path d="M95 68 Q100 65 105 68"/>
  </g>
  <!-- sea spray -->
  <g fill="#b0e8ff" opacity="0.45">
    <circle cx="15" cy="35" r="1.5"/><circle cx="35" cy="32" r="1"/>
    <circle cx="65" cy="30" r="1.5"/><circle cx="95" cy="33" r="1"/>
    <circle cx="115" cy="36" r="1.5"/>
  </g>
</svg>
