<svg xmlns="http://www.w3.org/2000/svg" width="128" height="128" viewBox="0 0 128 128">
  <defs>
    <radialGradient id="g" cx="45%" cy="52%" r="60%">
      <stop offset="0%" stop-color="#2890c8"/>
      <stop offset="100%" stop-color="#082048"/>
    </radialGradient>
    <clipPath id="c">
      <path d="M6 70 C4 52 18 34 38 28 C58 22 82 26 98 42 C114 58 118 80 106 96 C94 112 68 116 46 108 C24 100 8 88 6 70Z"/>
    </clipPath>
  </defs>
  <path d="M6 70 C4 52 18 34 38 28 C58 22 82 26 98 42 C114 58 118 80 106 96 C94 112 68 116 46 108 C24 100 8 88 6 70Z" fill="url(#g)" opacity="0.93"/>
  <!-- choppy waves -->
  <g clip-path="url(#c)" fill="#3498d4" opacity="0.45">
    <path d="M10 52 Q18 46 26 52 Q34 58 42 52 Q50 46 58 52 Q66 58 74 52 Q82 46 90 52 Q98 58 106 52 L110 62 Q102 68 94 62 Q86 56 78 62 Q70 68 62 62 Q54 56 46 62 Q38 68 30 62 Q22 56 14 62Z"/>
    <path d="M8 68 Q16 62 24 68 Q32 74 40 68 Q48 62 56 68 Q64 74 72 68 Q80 62 88 68 Q96 74 104 68 L108 78 Q100 84 92 78 Q84 72 76 78 Q68 84 60 78 Q52 72 44 78 Q36 84 28 78 Q20 72 12 78Z"/>
  </g>
  <!-- white foam caps -->
  <g clip-path="url(#c)" fill="#d8f2ff" opacity="0.7">
    <path d="M18 50 Q22 47 26 50"/><path d="M50 48 Q54 45 58 48"/>
    <path d="M82 50 Q86 47 90 50"/><path d="M24 66 Q28 63 32 66"/>
    <path d="M62 64 Q66 61 70 64"/><path d="M92 66 Q96 63 100 66"/>
  </g>
  <!-- lily pad -->
  <path d="M64 88 C58 84 54 78 58 74 C62 70 70 70 74 74 C78 78 74 88 64 88Z" fill="#2a7a1a" opacity="0.85"/>
  <path d="M64 88 L64 74" stroke="#1a5a0a" stroke-width="0.8" fill="none" opacity="0.6"/>
  <circle cx="64" cy="78" r="2.5" fill="#ffcc44" opacity="0.8"/>
  <path d="M6 70 C4 52 18 34 38 28 C58 22 82 26 98 42 C114 58 118 80 106 96 C94 112 68 116 46 108 C24 100 8 88 6 70Z" fill="none" stroke="#041428" stroke-width="2" opacity="0.4"/>
</svg>
