<svg xmlns="http://www.w3.org/2000/svg" width="128" height="128" viewBox="0 0 128 128"><ellipse cx="64.0" cy="91.5" rx="47.5" ry="15.0" fill="#000000" opacity="0.22"/><path d="M 110.4 64.0 C 110.6 73.5, 108.8 84.1, 104.0 93.1 C 99.2 102.0, 90.4 115.5, 81.5 117.8 C 72.5 120.0, 58.9 111.4, 50.1 106.7 C 41.4 101.9, 35.3 96.5, 29.1 89.4 C 22.9 82.2, 13.0 72.5, 12.9 64.0 C 12.8 55.5, 22.5 46.0, 28.5 38.2 C 34.5 30.4, 40.5 19.8, 48.7 17.0 C 56.9 14.3, 68.7 18.7, 77.7 21.8 C 86.7 25.0, 97.1 29.0, 102.6 36.0 C 108.0 43.0, 110.1 54.5, 110.4 64.0 Z" fill="#1b3f63"/><path d="M 104.2 64.0 C 103.6 72.6, 102.0 81.0, 97.7 88.5 C 93.5 96.0, 86.4 105.9, 78.6 108.8 C 70.7 111.7, 58.4 109.1, 50.5 105.7 C 42.5 102.2, 35.9 95.0, 30.8 88.1 C 25.7 81.1, 19.9 72.1, 19.9 64.0 C 19.9 55.9, 25.5 46.5, 30.7 39.8 C 35.8 33.0, 43.1 26.4, 50.9 23.6 C 58.6 20.8, 68.9 20.7, 77.4 22.9 C 85.8 25.1, 96.9 30.0, 101.3 36.9 C 105.8 43.7, 104.8 55.4, 104.2 64.0 Z" fill="#2a5f93"/><path d="M 85.9 57.0 C 85.3 62.7, 80.6 68.6, 76.6 72.6 C 72.7 76.6, 67.6 80.0, 62.3 81.2 C 57.0 82.4, 49.4 82.4, 44.8 79.8 C 40.2 77.2, 36.1 70.7, 34.6 65.5 C 33.0 60.3, 33.8 54.2, 35.3 48.8 C 36.9 43.3, 39.4 36.5, 44.1 32.9 C 48.7 29.3, 57.2 26.4, 63.2 27.3 C 69.3 28.2, 76.4 33.4, 80.2 38.4 C 84.0 43.3, 86.5 51.3, 85.9 57.0 Z" fill="#5fa6dc" opacity="0.55"/><path d="M 49.0 66.5 q 15.0 9.0 30.0 0" fill="none" stroke="#bfe3f5" stroke-width="2" opacity="0.50"/><path d="M 40.0 66.5 q 24.0 9.0 48.0 0" fill="none" stroke="#bfe3f5" stroke-width="2" opacity="0.38"/><ellipse cx="54.0" cy="49.0" rx="4.0" ry="2.0" fill="#bfe3f5" opacity="0.8"/><ellipse cx="69.0" cy="56.5" rx="3.0" ry="2.0" fill="#bfe3f5" opacity="0.8"/></svg>