<svg xmlns="http://www.w3.org/2000/svg" width="128" height="128" viewBox="0 0 128 128"><ellipse cx="64.0" cy="91.5" rx="47.5" ry="15.0" fill="#000000" opacity="0.22"/><path d="M 112.7 64.0 C 111.3 74.1, 106.8 82.8, 101.4 91.2 C 96.0 99.6, 88.9 112.2, 80.4 114.5 C 72.0 116.9, 59.3 109.3, 50.6 105.2 C 41.9 101.1, 34.0 96.9, 28.2 90.0 C 22.4 83.1, 16.0 72.6, 16.0 64.0 C 16.1 55.4, 22.9 45.5, 28.5 38.2 C 34.1 30.8, 41.1 23.6, 49.7 19.9 C 58.2 16.2, 69.6 14.0, 79.7 15.8 C 89.7 17.6, 104.6 22.5, 110.1 30.5 C 115.6 38.6, 114.1 53.9, 112.7 64.0 Z" fill="#1b3f63"/><path d="M 110.5 64.0 C 110.8 72.5, 105.2 82.6, 100.0 90.1 C 94.7 97.7, 87.1 106.6, 78.8 109.4 C 70.4 112.2, 58.5 110.4, 50.0 107.2 C 41.5 104.0, 32.9 97.6, 27.7 90.4 C 22.5 83.2, 18.3 72.4, 18.9 64.0 C 19.5 55.6, 26.1 47.8, 31.1 40.1 C 36.1 32.4, 41.2 21.6, 49.1 18.1 C 57.0 14.6, 70.4 15.7, 78.6 19.2 C 86.7 22.7, 92.8 31.8, 98.1 39.2 C 103.4 46.7, 110.2 55.5, 110.5 64.0 Z" fill="#2a5f93"/><path d="M 87.2 57.0 C 87.1 62.7, 82.2 69.0, 78.2 74.0 C 74.2 79.0, 69.3 85.4, 63.3 87.1 C 57.3 88.8, 47.3 87.5, 42.4 84.0 C 37.5 80.4, 35.5 71.8, 33.9 65.8 C 32.3 59.8, 31.0 53.0, 32.9 47.9 C 34.8 42.8, 40.4 37.7, 45.3 35.1 C 50.2 32.4, 56.8 31.3, 62.4 32.1 C 68.0 32.8, 74.6 35.4, 78.8 39.6 C 82.9 43.7, 87.3 51.3, 87.2 57.0 Z" fill="#5fa6dc" opacity="0.55"/><path d="M 49.0 66.5 q 15.0 9.0 30.0 0" fill="none" stroke="#bfe3f5" stroke-width="2" opacity="0.50"/><path d="M 40.0 66.5 q 24.0 9.0 48.0 0" fill="none" stroke="#bfe3f5" stroke-width="2" opacity="0.38"/><path d="M 31.0 66.5 q 33.0 9.0 66.0 0" fill="none" stroke="#bfe3f5" stroke-width="2" opacity="0.26"/><ellipse cx="54.0" cy="49.0" rx="4.0" ry="2.0" fill="#bfe3f5" opacity="0.8"/><ellipse cx="69.0" cy="56.5" rx="3.0" ry="2.0" fill="#bfe3f5" opacity="0.8"/></svg>