<svg xmlns="http://www.w3.org/2000/svg" width="128" height="128" viewBox="0 0 128 128"><ellipse cx="64.0" cy="91.5" rx="47.5" ry="15.0" fill="#000000" opacity="0.22"/><path d="M 115.5 64.0 C 115.5 73.7, 110.4 85.8, 104.2 93.2 C 98.0 100.6, 87.7 105.9, 78.5 108.7 C 69.3 111.4, 59.1 111.7, 49.2 109.7 C 39.3 107.7, 24.2 104.2, 19.1 96.6 C 13.9 89.0, 16.9 73.8, 18.3 64.0 C 19.8 54.2, 22.9 46.0, 27.8 37.7 C 32.7 29.4, 39.1 17.9, 47.8 14.2 C 56.5 10.4, 70.4 11.9, 79.8 15.3 C 89.2 18.8, 98.3 26.7, 104.2 34.8 C 110.2 42.9, 115.5 54.3, 115.5 64.0 Z" fill="#1b3f63"/><path d="M 108.0 64.0 C 107.0 73.2, 104.0 81.6, 99.2 89.6 C 94.5 97.6, 87.5 109.9, 79.6 111.9 C 71.7 114.0, 61.2 104.8, 51.7 101.8 C 42.3 98.7, 27.4 100.2, 22.9 93.9 C 18.4 87.6, 24.3 73.7, 24.7 64.0 C 25.1 54.3, 20.9 42.3, 25.3 35.9 C 29.8 29.5, 43.0 27.0, 51.5 25.5 C 60.0 23.9, 67.3 25.0, 76.2 26.5 C 85.1 28.0, 99.6 28.0, 104.9 34.3 C 110.2 40.6, 108.9 54.8, 108.0 64.0 Z" fill="#2a5f93"/><path d="M 86.5 57.0 C 86.2 63.3, 83.5 70.9, 79.5 75.0 C 75.4 79.1, 68.3 80.5, 62.3 81.6 C 56.4 82.8, 48.4 84.4, 43.7 81.7 C 39.1 79.0, 36.1 71.2, 34.4 65.6 C 32.6 60.0, 31.8 53.4, 33.5 48.1 C 35.2 42.8, 39.7 36.6, 44.6 33.8 C 49.4 30.9, 56.5 30.3, 62.6 30.9 C 68.7 31.5, 77.3 33.1, 81.3 37.5 C 85.2 41.8, 86.8 50.7, 86.5 57.0 Z" fill="#5fa6dc" opacity="0.55"/><path d="M 49.0 66.5 q 15.0 9.0 30.0 0" fill="none" stroke="#bfe3f5" stroke-width="2" opacity="0.50"/><path d="M 40.0 66.5 q 24.0 9.0 48.0 0" fill="none" stroke="#bfe3f5" stroke-width="2" opacity="0.38"/><path d="M 31.0 66.5 q 33.0 9.0 66.0 0" fill="none" stroke="#bfe3f5" stroke-width="2" opacity="0.26"/><ellipse cx="54.0" cy="49.0" rx="4.0" ry="2.0" fill="#bfe3f5" opacity="0.8"/><ellipse cx="69.0" cy="56.5" rx="3.0" ry="2.0" fill="#bfe3f5" opacity="0.8"/></svg>